<?xml version="1.0" encoding="utf-8"?>
<!-- Generator: Adobe Illustrator 16.0.0, SVG Export Plug-In . SVG Version: 6.00 Build 0)  -->
<!DOCTYPE svg PUBLIC "-//W3C//DTD SVG 1.1//EN" "http://www.w3.org/Graphics/SVG/1.1/DTD/svg11.dtd">
<svg version="1.1" id="layer_final" xmlns="http://www.w3.org/2000/svg" xmlns:xlink="http://www.w3.org/1999/xlink" x="0px"
	 y="0px" width="100px" height="100px" viewBox="0 0 100 100" enable-background="new 0 0 100 100" xml:space="preserve">
<g>
	<g>
		<path fill="#D0529D" d="M49.996,97.24c-1.092,0-2.159-0.385-3.004-1.076c-0.314-0.244-0.627-0.582-0.912-0.999
			c-4.293-5.218-12.527-15.254-19.221-25.849c-8.03-12.699-11.934-23.002-11.934-31.49c0-9.367,3.65-18.17,10.276-24.795
			C31.83,6.406,40.638,2.76,50.006,2.76c9.354,0,18.156,3.646,24.785,10.264c6.633,6.625,10.284,15.436,10.284,24.803
			c0,8.386-4.021,18.987-11.948,31.507C66.368,80.03,58.105,90.098,53.664,95.505C52.77,96.604,51.43,97.24,49.996,97.24z
			 M50.006,7.585c-8.079,0-15.675,3.144-21.39,8.857c-5.713,5.713-8.861,13.313-8.861,21.384c0,7.442,3.762,17.172,11.187,28.913
			c6.533,10.335,14.643,20.222,19.001,25.534l0.04,0.103c4.397-5.353,12.494-15.231,19.064-25.629
			c7.434-11.733,11.199-21.462,11.199-28.921c0-8.071-3.146-15.671-8.861-21.384C65.663,10.729,58.068,7.585,50.006,7.585z"/>
	</g>
	<g>
		<path fill="#D0529D" d="M50.006,49.575c-3.142,0-6.091-1.218-8.309-3.441c-2.216-2.209-3.438-5.156-3.438-8.3
			s1.216-6.09,3.422-8.307l1.053-1.061l0.122,0.039c4.087-3.144,10.197-3.151,14.289,0l0.109-0.039l1.064,1.061
			c2.213,2.217,3.431,5.171,3.431,8.307c0,3.128-1.218,6.075-3.431,8.3C56.081,48.357,53.136,49.575,50.006,49.575z M44.849,33.197
			c-1.138,1.272-1.761,2.908-1.761,4.637c0,1.848,0.717,3.584,2.022,4.889c2.609,2.609,7.164,2.609,9.783,0.008
			c1.309-1.313,2.027-3.049,2.027-4.896c0-1.744-0.637-3.387-1.798-4.668l-0.231-0.228c-2.632-2.617-7.163-2.609-9.781,0
			L44.849,33.197z"/>
	</g>
</g>
</svg>
