<?xml version="1.0" encoding="utf-8"?>
<!-- Generator: Adobe Illustrator 16.0.0, SVG Export Plug-In . SVG Version: 6.00 Build 0)  -->
<!DOCTYPE svg PUBLIC "-//W3C//DTD SVG 1.1//EN" "http://www.w3.org/Graphics/SVG/1.1/DTD/svg11.dtd">
<svg version="1.1" id="layer_final" xmlns="http://www.w3.org/2000/svg" xmlns:xlink="http://www.w3.org/1999/xlink" x="0px"
	 y="0px" width="100px" height="100px" viewBox="0 0 100 100" enable-background="new 0 0 100 100" xml:space="preserve">
<g display="none">
	<g display="inline">
		<path fill="#3F79BC" d="M49.996,97.24c-1.092,0-2.159-0.385-3.004-1.076c-0.314-0.244-0.627-0.582-0.912-0.999
			c-4.293-5.218-12.527-15.254-19.221-25.849c-8.03-12.699-11.934-23.002-11.934-31.49c0-9.367,3.65-18.17,10.276-24.795
			C31.83,6.406,40.638,2.76,50.006,2.76c9.354,0,18.156,3.646,24.785,10.264c6.633,6.625,10.284,15.436,10.284,24.803
			c0,8.386-4.021,18.987-11.948,31.507C66.368,80.03,58.105,90.098,53.664,95.505C52.77,96.604,51.43,97.24,49.996,97.24z
			 M50.006,7.585c-8.079,0-15.675,3.144-21.39,8.857c-5.713,5.713-8.861,13.313-8.861,21.384c0,7.442,3.762,17.172,11.187,28.913
			c6.533,10.335,14.643,20.222,19.001,25.534l0.04,0.103c4.397-5.353,12.494-15.231,19.064-25.629
			c7.434-11.733,11.199-21.462,11.199-28.921c0-8.071-3.146-15.671-8.861-21.384C65.663,10.729,58.068,7.585,50.006,7.585z"/>
	</g>
	<g display="inline">
		<path fill="#3F79BC" d="M50.006,49.575c-3.142,0-6.091-1.218-8.309-3.441c-2.216-2.209-3.438-5.156-3.438-8.3
			s1.216-6.09,3.422-8.307l1.053-1.061l0.122,0.039c4.087-3.144,10.197-3.151,14.289,0l0.109-0.039l1.064,1.061
			c2.213,2.217,3.431,5.171,3.431,8.307c0,3.128-1.218,6.075-3.431,8.3C56.081,48.357,53.136,49.575,50.006,49.575z M44.849,33.197
			c-1.138,1.271-1.761,2.908-1.761,4.637c0,1.848,0.717,3.584,2.022,4.889c2.609,2.609,7.164,2.609,9.783,0.008
			c1.31-1.313,2.027-3.049,2.027-4.896c0-1.744-0.637-3.387-1.798-4.668l-0.231-0.228c-2.632-2.617-7.163-2.609-9.781,0
			L44.849,33.197z"/>
	</g>
</g>
<g display="none">
	<path display="inline" fill="#3F79BC" d="M86.873,12.878H13.148c-6.58,0-11.934,5.34-11.934,11.927v50.391
		c0,6.587,5.354,11.927,11.934,11.927h73.704c6.58,0,11.936-5.34,11.936-11.927V24.814C98.8,18.246,93.453,12.878,86.873,12.878
		L86.873,12.878z M93.354,75.195c0,3.584-2.91,6.482-6.479,6.482H13.148c-3.57,0-6.479-2.898-6.479-6.482V24.814
		c0-3.557,2.909-6.466,6.479-6.466h73.704c3.57,0,6.479,2.909,6.479,6.466v50.381H93.354z"/>
	<path display="inline" fill="#3F79BC" d="M62.745,49.371l23.86-21.395c1.112-1.004,1.215-2.73,0.201-3.866
		c-1.007-1.107-2.725-1.201-3.851-0.188l-32.908,29.53l-6.416-5.733c-0.021-0.028-0.042-0.037-0.042-0.063
		c-0.143-0.132-0.281-0.263-0.446-0.376L17.021,23.895c-1.128-1.004-2.845-0.9-3.852,0.216c-1.013,1.136-0.912,2.862,0.223,3.866
		l24.142,21.582L13.493,72.061c-1.091,1.043-1.156,2.75-0.122,3.857c0.546,0.572,1.271,0.872,1.999,0.872
		c0.666,0,1.328-0.243,1.86-0.731l24.4-22.83l6.625,5.922c0.523,0.459,1.171,0.686,1.816,0.686c0.647,0,1.309-0.244,1.818-0.704
		l6.805-6.106l24.266,23.056c0.521,0.517,1.206,0.76,1.875,0.76c0.727,0,1.438-0.29,1.977-0.862c1.033-1.08,0.991-2.813-0.096-3.848
		L62.745,49.371z"/>
</g>
<g>
	<g>
		<path fill="#FFFFFF" d="M28.878,5.892c-4.361-4.316-9.988-4.288-14.385,0.084c-0.783,0.789-1.544,1.57-2.284,2.341
			c-1.467,1.494-2.854,2.933-4.343,4.258c-3.44,3.093-5.201,7.145-5.201,12.137c0,0.413,0.027,0.836,0.042,1.26
			c0.338,5.875,2.069,11.929,5.497,18.961c6.232,12.784,14.98,23.961,26.047,33.287c8.895,7.455,17.763,12.769,27.125,16.255
			c4.136,1.531,9.671,3.213,15.788,2.772c3.893-0.292,7.178-1.813,9.764-4.569c1.416-1.466,2.883-2.914,4.307-4.324
			c0.976-0.959,1.977-1.974,2.978-2.961c2.054-2.086,3.123-4.539,3.123-7.078s-1.069-5.002-3.123-7.105
			c-1.354-1.382-2.733-2.766-4.089-4.1L86.507,63.5c-1.312-1.309-2.649-2.689-4.004-4.005c-4.399-4.353-10.065-4.381-14.45-0.028
			l-1.361,1.372c-1.791,1.777-3.639,3.593-5.435,5.453c-3.011-1.327-5.979-3.226-9.327-5.933
			c-6.894-5.604-12.153-11.384-16.1-17.685c-0.507-0.799-0.959-1.701-1.424-2.66c-0.212-0.414-0.423-0.846-0.642-1.269
			c2.144-2.106,4.301-4.259,6.371-6.364l0.521-0.536c2.052-2.059,3.145-4.513,3.145-7.06c0-2.557-1.093-5.01-3.166-7.107
			C36.824,13.835,32.883,9.869,28.878,5.892L28.878,5.892z M18.206,9.699c2.284-2.265,4.689-2.294,6.939,0.003
			c3.988,3.948,7.93,7.915,11.744,11.731c0.748,0.771,1.621,1.956,1.621,3.394c0,1.428-0.873,2.613-1.621,3.356l-0.529,0.526
			c-2.207,2.2-4.478,4.512-6.77,6.722c-0.923,0.921-1.417,1.964-1.417,3.073c0,0.705,0.177,1.41,0.564,2.106
			c0.31,0.573,0.606,1.137,0.901,1.758c0.508,1.024,1.036,2.124,1.692,3.168c4.265,6.787,9.91,13.001,17.243,18.971
			c3.946,3.196,7.506,5.406,11.157,6.929c2.306,0.959,3.903,0,4.842-0.969c1.904-1.994,3.898-3.968,5.81-5.848
			c0.466-0.471,0.925-0.932,1.39-1.383c2.349-2.34,4.629-2.313,6.998,0.029l5.74,5.732c0.612,0.63,1.233,1.241,1.858,1.859
			c1.325,1.309,2.714,2.707,4.047,4.043c0.741,0.779,1.622,1.966,1.622,3.412c0,1.438-0.883,2.643-1.622,3.375
			c-0.979,0.969-1.976,1.955-2.933,2.904c-1.443,1.467-2.945,2.942-4.455,4.456c-1.687,1.767-3.771,2.726-6.332,2.923
			c-3.973,0.282-8.153-0.46-13.547-2.463c-8.797-3.252-17.136-8.271-25.565-15.351c-10.467-8.827-18.779-19.47-24.672-31.586
			C9.795,36.187,8.229,30.82,7.94,25.64c-0.211-4.005,0.867-6.891,3.42-9.176c1.629-1.465,3.152-3.017,4.615-4.521
			C16.718,11.212,17.466,10.431,18.206,9.699L18.206,9.699z"/>
	</g>
</g>
</svg>
