<?xml version="1.0" encoding="utf-8"?>
<!-- Generator: Adobe Illustrator 16.0.0, SVG Export Plug-In . SVG Version: 6.00 Build 0)  -->
<!DOCTYPE svg PUBLIC "-//W3C//DTD SVG 1.1//EN" "http://www.w3.org/Graphics/SVG/1.1/DTD/svg11.dtd">
<svg version="1.1" id="layer_final" xmlns="http://www.w3.org/2000/svg" xmlns:xlink="http://www.w3.org/1999/xlink" x="0px"
	 y="0px" width="100px" height="100px" viewBox="0 0 100 100" enable-background="new 0 0 100 100" xml:space="preserve">
<g display="none">
	<g display="inline">
		<path fill="#3F79BC" d="M49.996,97.24c-1.092,0-2.159-0.385-3.004-1.076c-0.314-0.244-0.627-0.582-0.912-0.999
			c-4.293-5.218-12.527-15.254-19.221-25.849c-8.03-12.699-11.934-23.002-11.934-31.49c0-9.367,3.65-18.17,10.276-24.795
			C31.83,6.406,40.638,2.76,50.006,2.76c9.354,0,18.156,3.646,24.785,10.264c6.633,6.625,10.284,15.436,10.284,24.803
			c0,8.386-4.021,18.987-11.948,31.507C66.368,80.03,58.105,90.098,53.664,95.505C52.77,96.604,51.43,97.24,49.996,97.24z
			 M50.006,7.585c-8.079,0-15.675,3.144-21.39,8.857c-5.713,5.713-8.861,13.313-8.861,21.384c0,7.442,3.762,17.172,11.187,28.913
			c6.533,10.335,14.643,20.222,19.001,25.534l0.04,0.103c4.397-5.353,12.494-15.231,19.064-25.629
			c7.434-11.733,11.199-21.462,11.199-28.921c0-8.071-3.146-15.671-8.861-21.384C65.663,10.729,58.068,7.585,50.006,7.585z"/>
	</g>
	<g display="inline">
		<path fill="#3F79BC" d="M50.006,49.575c-3.142,0-6.091-1.218-8.309-3.441c-2.216-2.209-3.438-5.156-3.438-8.3
			s1.216-6.09,3.422-8.307l1.053-1.061l0.122,0.039c4.087-3.144,10.197-3.151,14.289,0l0.109-0.039l1.064,1.061
			c2.213,2.217,3.431,5.171,3.431,8.307c0,3.128-1.218,6.075-3.431,8.3C56.081,48.357,53.136,49.575,50.006,49.575z M44.849,33.197
			c-1.138,1.272-1.761,2.908-1.761,4.637c0,1.848,0.717,3.584,2.022,4.889c2.609,2.609,7.164,2.609,9.783,0.008
			c1.309-1.313,2.027-3.049,2.027-4.896c0-1.744-0.637-3.387-1.798-4.668l-0.231-0.228c-2.632-2.617-7.163-2.609-9.781,0
			L44.849,33.197z"/>
	</g>
</g>
<g>
	<path fill="#D0529D" d="M86.873,12.878H13.148c-6.58,0-11.934,5.34-11.934,11.927v50.391c0,6.587,5.354,11.927,11.934,11.927
		h73.704c6.58,0,11.935-5.34,11.935-11.927V24.814C98.8,18.246,93.453,12.878,86.873,12.878L86.873,12.878z M93.354,75.195
		c0,3.584-2.91,6.483-6.479,6.483H13.148c-3.57,0-6.479-2.899-6.479-6.483V24.814c0-3.557,2.909-6.466,6.479-6.466h73.704
		c3.57,0,6.479,2.909,6.479,6.466v50.381H93.354z"/>
	<path fill="#D0529D" d="M62.745,49.371l23.86-21.395c1.113-1.004,1.215-2.73,0.201-3.866c-1.006-1.107-2.724-1.201-3.85-0.188
		l-32.908,29.53l-6.416-5.733c-0.021-0.028-0.042-0.037-0.042-0.064c-0.143-0.132-0.281-0.263-0.446-0.376L17.021,23.895
		c-1.128-1.004-2.845-0.9-3.852,0.216c-1.013,1.136-0.912,2.862,0.223,3.866l24.142,21.582L13.493,72.061
		c-1.091,1.043-1.156,2.75-0.122,3.857c0.546,0.572,1.271,0.872,1.999,0.872c0.666,0,1.328-0.243,1.86-0.731l24.4-22.83l6.625,5.922
		c0.523,0.459,1.171,0.685,1.816,0.685c0.647,0,1.309-0.244,1.818-0.704l6.805-6.107l24.265,23.056
		c0.522,0.517,1.206,0.76,1.875,0.76c0.726,0,1.437-0.29,1.976-0.862c1.034-1.08,0.992-2.814-0.095-3.848L62.745,49.371z"/>
</g>
</svg>
