<?xml version="1.0" encoding="utf-8"?>
<!-- Generator: Adobe Illustrator 16.0.0, SVG Export Plug-In . SVG Version: 6.00 Build 0)  -->
<!DOCTYPE svg PUBLIC "-//W3C//DTD SVG 1.1//EN" "http://www.w3.org/Graphics/SVG/1.1/DTD/svg11.dtd">
<svg version="1.1" id="Isolation_Mode" xmlns="http://www.w3.org/2000/svg" xmlns:xlink="http://www.w3.org/1999/xlink" x="0px"
	 y="0px" width="100px" height="100px" viewBox="0 0 100 100" enable-background="new 0 0 100 100" xml:space="preserve">
<g display="none">
	<path display="inline" fill-rule="evenodd" clip-rule="evenodd" fill="#FFFFFF" d="M62.384,53.057
		c-0.608-0.643-1.168-1.182-1.661-1.772c-0.302-0.363-0.548-0.439-0.994-0.24c-3.586,1.596-7.179,3.174-10.781,4.729
		c-0.539,0.232-0.716,0.494-0.627,1.104c0.943,6.422,1.86,12.85,2.766,19.279c0.086,0.614,0.32,0.844,0.954,0.769
		c2.845-0.341,5.69-0.664,8.541-0.962c0.629-0.064,0.817-0.308,0.789-0.935c-0.106-2.249-0.145-4.502-0.239-6.751
		c-0.021-0.47,0.129-0.704,0.562-0.881c3.086-1.267,6.165-2.548,9.237-3.851c0.282-0.12,0.576-0.368,0.719-0.636
		c1.225-2.287,2.41-4.595,3.622-6.891c0.087-0.165,0.28-0.274,0.425-0.408c0.028,0.191,0.119,0.396,0.079,0.571
		c-0.457,2.005-0.926,4.008-1.408,6.007c-0.853,3.521-1.698,7.046-2.58,10.56c-0.854,3.396-1.758,6.779-2.629,10.171
		c-1,3.89-1.971,7.789-2.996,11.671c-0.181,0.681-0.034,0.975,0.622,1.19c2.866,0.942,5.724,1.908,8.571,2.901
		c0.642,0.223,0.873,0.013,1.053-0.572c1.197-3.914,2.412-7.824,3.627-11.732c0.846-2.716,1.751-5.413,2.538-8.145
		c0.778-2.696,1.725-5.326,2.291-8.107c0.752-3.682,2.086-7.247,3.17-10.862c1.525-5.095,3.051-10.189,4.584-15.281
		c0.052-0.175,0.146-0.415,0.285-0.472c1.019-0.418,1.217-1.338,1.408-2.25c0.186-0.878-0.021-1.269-0.828-1.639
		c-1.535-0.704-3.06-1.445-4.625-2.08c-2.612-1.059-5.222-2.138-7.89-3.034c-2.644-0.89-5.361-1.564-8.046-2.332
		c-0.694-0.199-1.446-0.433-1.963,0.26c-0.603,0.806-1.064,1.693-0.815,2.783c0.063,0.274,0.067,0.616-0.042,0.868
		c-0.634,1.461-1.314,2.901-1.971,4.353c-1.586,3.505-3.166,7.014-4.752,10.52C63.079,51.62,62.758,52.271,62.384,53.057z"/>
	<path display="inline" fill-rule="evenodd" clip-rule="evenodd" d="M62.384,53.057c0.374-0.786,0.695-1.437,0.995-2.097
		c1.586-3.506,3.166-7.015,4.752-10.52c0.656-1.451,1.337-2.892,1.971-4.353c0.109-0.252,0.104-0.594,0.042-0.868
		c-0.249-1.09,0.213-1.978,0.815-2.783c0.517-0.692,1.269-0.459,1.963-0.26c2.685,0.768,5.402,1.442,8.046,2.332
		c2.668,0.896,5.277,1.976,7.89,3.034c1.565,0.635,3.09,1.376,4.625,2.08c0.807,0.37,1.014,0.761,0.828,1.639
		c-0.191,0.912-0.39,1.832-1.408,2.25c-0.139,0.057-0.233,0.297-0.285,0.472c-1.533,5.092-3.059,10.187-4.584,15.281
		c-1.084,3.615-2.418,7.181-3.17,10.862c-0.566,2.781-1.513,5.411-2.291,8.107c-0.787,2.731-1.692,5.429-2.538,8.145
		c-1.215,3.908-2.43,7.818-3.627,11.732c-0.18,0.585-0.411,0.795-1.053,0.572c-2.848-0.993-5.705-1.959-8.571-2.901
		c-0.656-0.216-0.803-0.51-0.622-1.19c1.025-3.882,1.996-7.781,2.996-11.671c0.871-3.392,1.774-6.774,2.629-10.171
		c0.882-3.514,1.728-7.038,2.58-10.56c0.482-1.999,0.951-4.002,1.408-6.007c0.04-0.176-0.051-0.38-0.079-0.571
		c-0.145,0.134-0.338,0.243-0.425,0.408c-1.212,2.296-2.397,4.604-3.622,6.891c-0.143,0.268-0.437,0.516-0.719,0.636
		c-3.072,1.303-6.151,2.584-9.237,3.851c-0.433,0.177-0.582,0.411-0.562,0.881c0.095,2.249,0.133,4.502,0.239,6.751
		c0.028,0.627-0.16,0.87-0.789,0.935c-2.851,0.298-5.696,0.621-8.541,0.962c-0.634,0.075-0.868-0.154-0.954-0.769
		c-0.905-6.43-1.822-12.857-2.766-19.279c-0.089-0.61,0.088-0.872,0.627-1.104c3.603-1.556,7.195-3.134,10.781-4.729
		c0.446-0.199,0.692-0.123,0.994,0.24C61.216,51.875,61.775,52.414,62.384,53.057z M75.544,97.987
		c0.708-2.291,1.332-4.328,1.971-6.36c2.065-6.573,4.133-13.145,6.218-19.711c0.152-0.48,0.073-0.763-0.336-1.053
		c-0.3-0.213-0.917-0.348-0.629-0.877c0.094-0.173,0.672-0.082,1.195-0.126c2.599-8.673,5.258-17.547,7.931-26.462
		c-1.925-0.467-3.7-0.921-5.489-1.321c-0.841-0.189-1.711-0.253-2.559-0.416c-0.395-0.075-0.782-0.226-1.146-0.397
		c-0.299-0.144-0.558-0.369-0.922-0.619c-0.153,0.414-0.246,0.663-0.339,0.911c-0.727,1.954-1.444,3.911-2.195,5.856
		c-0.097,0.25-0.365,0.433-0.555,0.647c-0.015-0.28-0.118-0.591-0.031-0.835c0.675-1.895,1.385-3.776,2.085-5.662
		c0.126-0.34,0.253-0.678,0.388-1.043c-0.488-0.183-0.887-0.354-1.3-0.478c-0.348-0.103-0.752-0.075-1.06-0.237
		c-0.72-0.381-1.372-0.892-2.098-1.257c-1.4-0.706-2.831-1.352-4.253-2.013c-0.413-0.193-0.839-0.359-1.307-0.558
		c-0.243,0.519-0.456,0.958-0.66,1.402c-1.322,2.898-2.647,5.795-3.964,8.697c-1.093,2.41-2.182,4.823-3.25,7.246
		c-0.082,0.182-0.079,0.519,0.036,0.65c0.759,0.859,1.558,1.683,2.419,2.598c0.446-0.746,0.831-1.418,1.254-2.065
		c0.092-0.139,0.326-0.185,0.496-0.273c0.001,0.179,0.066,0.392-0.006,0.536c-0.31,0.609-0.637,1.215-1.001,1.794
		c-0.242,0.384-0.172,0.641,0.13,0.956c1.358,1.413,2.692,2.849,4.038,4.272c0.128,0.136,0.284,0.244,0.489,0.419
		c1.242-2.401,2.45-4.738,3.657-7.073c-0.071,0-0.142,0-0.214,0c-0.088-0.285-0.177-0.569-0.267-0.854
		c0.314-0.004,0.632-0.031,0.943-0.002c0.229,0.021,0.451,0.12,0.726,0.198c0.11-0.295,0.194-0.521,0.279-0.748
		c0.316-0.85,0.616-1.708,0.965-2.546c0.072-0.177,0.321-0.281,0.49-0.42c0.03,0.217,0.098,0.438,0.082,0.65
		c-0.015,0.189-0.12,0.372-0.188,0.557c-0.34,0.911-0.68,1.822-1.024,2.75c0.28,0.125,0.463,0.193,0.634,0.283
		c0.32,0.167,0.888,0.171,0.699,0.715c-0.05,0.142-0.605,0.107-0.929,0.155c-0.047,0.007-0.093,0.021-0.2,0.047
		c-0.059,0.201-0.133,0.432-0.189,0.666c-0.888,3.741-1.75,7.487-2.667,11.221c-0.813,3.308-1.684,6.6-2.529,9.898
		c-0.882,3.44-1.764,6.88-2.643,10.321c-0.542,2.113-1.084,4.225-1.597,6.343c-0.051,0.201,0.038,0.601,0.168,0.653
		c1.192,0.49,2.408,0.925,3.691,1.401c0.628-2.343,1.199-4.466,1.766-6.591c0.857-3.22,1.71-6.44,2.565-9.661
		c0.86-3.244,1.716-6.489,2.581-9.732c0.372-1.396,0.751-2.792,1.154-4.18c0.047-0.156,0.267-0.264,0.404-0.395
		c0.047,0.188,0.155,0.387,0.125,0.562c-0.08,0.456-0.219,0.903-0.339,1.354c-0.845,3.172-1.693,6.345-2.536,9.517
		c-0.857,3.22-1.706,6.441-2.563,9.661c-0.806,3.031-1.624,6.058-2.407,9.095c-0.043,0.171,0.129,0.532,0.284,0.598
		C73.147,97.114,74.297,97.522,75.544,97.987z M55.964,75.626c1.572-0.181,3.043-0.351,4.557-0.524
		c-0.256-7.736-0.509-15.375-0.766-23.137c-1.771,0.779-3.372,1.517-5.003,2.183c-0.562,0.229-0.699,0.519-0.643,1.102
		c0.451,4.754,0.87,9.511,1.3,14.268C55.59,71.512,55.772,73.51,55.964,75.626z M53.455,54.729
		c-1.338,0.588-2.515,1.135-3.717,1.617c-0.489,0.196-0.576,0.456-0.506,0.946c0.877,6.008,1.735,12.02,2.6,18.032
		c0.033,0.233,0.091,0.465,0.148,0.751c1.142-0.131,2.226-0.256,3.365-0.388C54.715,68.689,54.09,61.775,53.455,54.729z
		 M60.842,52.687c-0.06,0.026-0.119,0.053-0.18,0.079c0.071,2.125,0.135,4.251,0.225,6.376c0.007,0.199,0.141,0.417,0.269,0.585
		c1.237,1.616,2.498,3.215,3.722,4.839c0.285,0.379,0.535,0.386,0.928,0.212c0.962-0.43,1.944-0.818,2.917-1.227
		c0.528-0.222,1.055-0.45,1.678-0.716C67.148,59.382,63.996,56.034,60.842,52.687z M78.935,37.36c0.42-1.234,0.409-1.211-0.783-1.74
		c-1.563-0.693-3.114-1.41-4.656-2.147c-1.035-0.496-1.023-0.518-1.498,0.559c-0.09,0.201-0.183,0.401-0.295,0.59
		c-0.235,0.393-0.104,0.618,0.287,0.798c2.019,0.931,4.033,1.869,6.042,2.817c0.348,0.163,0.553,0.103,0.674-0.258
		C78.776,37.77,78.857,37.565,78.935,37.36z M92.681,40.296c-2.254-0.581-4.542-1.176-6.835-1.746
		c-0.133-0.032-0.41,0.1-0.463,0.224c-0.268,0.614-0.485,1.252-0.756,1.983c1.974,0.48,3.815,0.96,5.674,1.371
		c1.991,0.44,1.999,0.412,2.418-1.606C92.728,40.479,92.705,40.429,92.681,40.296z M64.621,65.264
		c-1.222-1.564-2.369-3.035-3.518-4.507c-0.058,0.022-0.117,0.044-0.177,0.067c0.063,1.912,0.126,3.826,0.192,5.877
		C62.324,66.207,63.399,65.765,64.621,65.264z M80.999,36.786c-0.294,0.792-0.471,1.325-0.691,1.839
		c-0.167,0.386-0.044,0.598,0.318,0.735c0.618,0.234,1.227,0.499,1.856,0.694c0.169,0.051,0.521-0.052,0.584-0.183
		c0.26-0.542,0.441-1.121,0.738-1.919C82.413,38.624,81.766,37.74,80.999,36.786z M87.793,38.134
		c-3.204-1.525-6.476-2.836-9.933-3.63c0.24,0.174,0.504,0.287,0.765,0.405c1.365,0.619,2.908,0.927,3.874,2.246
		c0.073,0.1,0.319,0.142,0.462,0.108c1.056-0.24,2.027,0.024,3.007,0.393C86.554,37.875,87.183,37.979,87.793,38.134z M83.318,41.01
		c0.355-0.023,0.438-0.012,0.447-0.032c0.39-0.911,0.778-1.825,1.148-2.746c0.026-0.065-0.094-0.188-0.146-0.285
		c-0.13,0.07-0.334,0.111-0.382,0.219c-0.199,0.445-0.351,0.912-0.52,1.37C83.698,39.99,83.528,40.444,83.318,41.01z M79.081,39.346
		c0.092,0.007,0.187,0.015,0.28,0.022c0.337-0.907,0.684-1.81,1-2.726c0.035-0.101-0.099-0.259-0.156-0.391
		c-0.112,0.098-0.282,0.174-0.332,0.298c-0.295,0.748-0.575,1.501-0.832,2.264C78.989,38.969,79.063,39.166,79.081,39.346z"/>
	<path display="inline" fill-rule="evenodd" clip-rule="evenodd" fill="#FFFFFF" d="M55.964,75.626
		c-0.191-2.116-0.374-4.114-0.555-6.109c-0.43-4.757-0.849-9.514-1.3-14.268c-0.057-0.583,0.081-0.872,0.643-1.102
		c1.631-0.666,3.232-1.403,5.003-2.183c0.257,7.762,0.51,15.4,0.766,23.137C59.007,75.275,57.536,75.445,55.964,75.626z"/>
	<path display="inline" fill-rule="evenodd" clip-rule="evenodd" fill="#FFFFFF" d="M53.455,54.729
		c0.635,7.047,1.26,13.961,1.891,20.959c-1.14,0.132-2.224,0.257-3.365,0.388c-0.058-0.286-0.115-0.518-0.148-0.751
		c-0.864-6.013-1.723-12.024-2.6-18.032c-0.07-0.49,0.017-0.75,0.506-0.946C50.94,55.863,52.117,55.316,53.455,54.729z"/>
	<path display="inline" fill-rule="evenodd" clip-rule="evenodd" fill="#FFFFFF" d="M60.842,52.687
		c3.154,3.348,6.307,6.695,9.558,10.148c-0.623,0.266-1.149,0.494-1.678,0.716c-0.973,0.408-1.955,0.797-2.917,1.227
		c-0.393,0.174-0.643,0.167-0.928-0.212c-1.224-1.624-2.484-3.223-3.722-4.839c-0.128-0.168-0.262-0.386-0.269-0.585
		c-0.09-2.125-0.153-4.251-0.225-6.376C60.723,52.739,60.782,52.713,60.842,52.687z"/>
	<path display="inline" fill-rule="evenodd" clip-rule="evenodd" fill="#FFFFFF" d="M78.935,37.36
		c-0.077,0.205-0.158,0.409-0.229,0.618c-0.121,0.36-0.326,0.421-0.674,0.258c-2.009-0.948-4.023-1.887-6.042-2.817
		c-0.392-0.18-0.522-0.405-0.287-0.798c0.112-0.188,0.205-0.389,0.295-0.59c0.475-1.076,0.463-1.055,1.498-0.559
		c1.542,0.737,3.094,1.454,4.656,2.147C79.344,36.149,79.354,36.126,78.935,37.36z"/>
	<path display="inline" fill-rule="evenodd" clip-rule="evenodd" fill="#FFFFFF" d="M92.681,40.296
		c0.024,0.133,0.047,0.184,0.038,0.226c-0.419,2.019-0.427,2.047-2.418,1.606c-1.858-0.411-3.7-0.891-5.674-1.371
		c0.271-0.731,0.488-1.369,0.756-1.983c0.053-0.124,0.33-0.256,0.463-0.224C88.139,39.12,90.427,39.715,92.681,40.296z"/>
	<path display="inline" fill-rule="evenodd" clip-rule="evenodd" fill="#FFFFFF" d="M64.621,65.264
		c-1.222,0.501-2.297,0.943-3.502,1.438c-0.066-2.051-0.13-3.965-0.192-5.877c0.06-0.023,0.119-0.045,0.177-0.067
		C62.252,62.229,63.399,63.699,64.621,65.264z"/>
	<path display="inline" fill-rule="evenodd" clip-rule="evenodd" fill="#FFFFFF" d="M80.999,36.786
		c0.767,0.954,1.414,1.838,2.806,1.167c-0.297,0.798-0.479,1.377-0.738,1.919c-0.063,0.131-0.415,0.233-0.584,0.183
		c-0.63-0.195-1.238-0.46-1.856-0.694c-0.362-0.138-0.485-0.35-0.318-0.735C80.528,38.111,80.705,37.578,80.999,36.786z"/>
	<path display="inline" fill-rule="evenodd" clip-rule="evenodd" fill="#FFFFFF" d="M87.793,38.134
		c-0.61-0.155-1.239-0.259-1.825-0.478c-0.979-0.368-1.951-0.633-3.007-0.393c-0.143,0.033-0.389-0.009-0.462-0.108
		c-0.966-1.319-2.509-1.627-3.874-2.246c-0.261-0.118-0.524-0.231-0.765-0.405C81.317,35.298,84.589,36.608,87.793,38.134z"/>
	<path display="inline" fill-rule="evenodd" clip-rule="evenodd" fill="#FFFFFF" d="M83.318,41.01c0.21-0.565,0.38-1.02,0.549-1.475
		c0.169-0.458,0.32-0.925,0.52-1.37c0.048-0.107,0.252-0.148,0.382-0.219c0.052,0.097,0.172,0.22,0.146,0.285
		c-0.37,0.921-0.759,1.835-1.148,2.746C83.756,40.998,83.674,40.986,83.318,41.01z"/>
	<path display="inline" fill-rule="evenodd" clip-rule="evenodd" fill="#FFFFFF" d="M79.081,39.346
		c-0.018-0.18-0.092-0.377-0.04-0.532c0.257-0.763,0.537-1.516,0.832-2.264c0.05-0.124,0.22-0.2,0.332-0.298
		c0.058,0.132,0.191,0.29,0.156,0.391c-0.316,0.916-0.663,1.818-1,2.726C79.268,39.36,79.173,39.353,79.081,39.346z"/>
	<path display="inline" fill-rule="evenodd" clip-rule="evenodd" d="M76.245,92.323c1.916-6.11,3.832-12.219,5.747-18.33
		c0.114,0.035,0.227,0.069,0.339,0.105c-1.888,6.117-3.798,12.226-5.751,18.323C76.47,92.389,76.358,92.356,76.245,92.323z"/>
	<path display="inline" fill-rule="evenodd" clip-rule="evenodd" d="M80.425,63.317c-0.038,0.031-0.206,0.166-0.374,0.302
		c-0.058-0.212-0.201-0.443-0.157-0.631c0.256-1.089,0.545-2.171,0.855-3.245c0.048-0.161,0.271-0.272,0.411-0.408
		c0.061,0.211,0.21,0.441,0.165,0.625C81.067,61.023,80.764,62.075,80.425,63.317z"/>
	<path display="inline" fill-rule="evenodd" clip-rule="evenodd" d="M74.833,96.601c0.19-0.509,0.375-0.982,0.542-1.463
		c0.158-0.454,0.297-0.915,0.443-1.375c0.107,0.035,0.215,0.07,0.321,0.106c-0.323,1-0.644,2.002-0.977,3
		c-0.025,0.076-0.154,0.189-0.207,0.176c-0.725-0.192-1.446-0.404-2.167-0.611c0.026-0.092,0.052-0.182,0.077-0.273
		C73.511,96.304,74.154,96.447,74.833,96.601z"/>
</g>
<g>
	<path fill-rule="evenodd" clip-rule="evenodd" d="M35.1,34.226c-0.773,2.833-1.549,5.667-2.322,8.501
		c-0.016,0.055-0.031,0.109-0.035,0.165c-0.389,8.338-2.447,16.413-3.836,24.595c-0.117,0.691-0.377,1.007-1.08,0.914
		c-1.463-0.192-2.961-0.244-4.381-0.605c-1.309-0.333-1.572-0.896-1.441-2.161c0.662-6.386,1.34-12.77,2.02-19.152
		c0.049-0.444,0.131-0.888,0.24-1.321c0.348-1.402,0.672-2.776,0.617-4.27c-0.043-1.143,0.502-2.293,0.633-3.457
		c0.344-3.034,0.543-6.084,0.908-9.115c0.551-4.588,1.172-9.167,1.803-13.744c0.34-2.458,1.73-4.115,4.031-5.048
		c2.363-0.956,4.713-1.945,7.059-2.942c0.482-0.205,0.965-0.46,1.367-0.789c0.24-0.196,0.32-0.585,0.48-0.882
		c0.275-0.504,0.582-0.992,0.832-1.508c0.23-0.476,0.506-0.964,0.578-1.473c0.1-0.694,0.361-1.122,1.084-1.124
		c4.205-0.01,8.41-0.011,12.615-0.004c0.758,0.002,1.086,0.422,1.113,1.179c0.012,0.372,0.096,0.815,0.316,1.094
		c0.537,0.68,1.02,1.302,1.217,2.229c0.105,0.501,0.973,0.947,1.586,1.215c1.951,0.85,3.971,1.545,5.912,2.416
		c1.244,0.559,2.48,1.214,3.557,2.038c0.613,0.468,1.109,1.315,1.287,2.078c0.602,2.557,1.195,5.134,1.5,7.737
		c0.611,5.205,1.004,10.435,1.547,15.647c0.131,1.275,0.498,2.526,0.744,3.791c0.064,0.327,0.172,0.69,0.094,0.993
		c-0.301,1.158,0.225,2.188,0.396,3.276c0.379,2.406,0.684,4.825,0.961,7.245c0.455,4.011,0.867,8.025,1.295,12.039
		c0.076,0.725,0.113,1.454,0.211,2.176c0.096,0.712-0.203,1.174-0.789,1.526c-1.225,0.736-2.582,0.888-3.967,0.913
		c-1.975,0.035-2.006,0.033-2.359-1.868c-0.965-5.178-1.908-10.359-2.838-15.543c-0.336-1.869-0.611-3.749-0.914-5.624
		c-0.021-0.138-0.059-0.285-0.033-0.417c0.404-2.024-0.441-3.85-0.912-5.732c-0.428-1.706-0.877-3.407-1.371-5.32
		c-1.215,4.494-2.566,8.744-1.354,13.291c0.248,0.927,0.135,1.947,0.219,2.921c0.045,0.542,0.057,1.118,0.252,1.61
		c1.705,4.275,3.453,8.572,3.939,13.168c0.354,3.354,0.324,6.782,0.127,10.157c-0.418,7.19-1.066,14.368-1.592,21.553
		c-0.051,0.694-0.363,0.961-0.98,1.131c-3.707,1.023-7.514,1.279-11.324,1.395c-5.076,0.153-10.156,0.147-15.201-0.542
		c-1.521-0.209-3.029-0.56-4.523-0.928c-0.307-0.075-0.721-0.5-0.754-0.801c-1.088-9.729-1.879-19.479-1.838-29.277
		c0.014-3.515,1.051-6.852,2.129-10.162c0.338-1.038,0.688-2.077,1.096-3.09c0.76-1.89,1.445-3.731,1.346-5.879
		c-0.086-1.875,0.533-3.771,0.566-5.663C36.986,39.808,35.928,37.021,35.1,34.226z M32.662,13.767
		c0.078-0.002,0.158-0.004,0.236-0.006c0.023,0.53,0.076,1.06,0.066,1.59c-0.086,4.594,0.588,9.111,1.518,13.584
		c0.695,3.34,1.568,6.644,2.426,9.947c0.676,2.604,0.688,5.191,0.184,7.823c-0.213,1.115-0.184,2.275-0.287,3.412
		c-0.047,0.521-0.063,1.066-0.236,1.549c-0.607,1.686-1.322,3.333-1.916,5.022c-1.598,4.552-2.693,9.19-2.408,14.073
		c0.197,3.415,0.238,6.839,0.486,10.249c0.371,5.114,0.867,10.22,1.289,15.33c0.047,0.57,0.275,0.871,0.818,0.974
		c1.344,0.255,2.68,0.567,4.031,0.764c4.502,0.655,9.041,0.683,13.576,0.614c3.973-0.061,7.936-0.306,11.834-1.161
		c1.602-0.352,1.654-0.344,1.76-1.814c0.549-7.519,1.119-15.036,1.574-22.561c0.186-3.044,0.303-6.111-0.287-9.142
		c-0.756-3.894-2.02-7.633-3.51-11.296c-0.426-1.042-0.805-2.031-0.637-3.222c0.113-0.804-0.094-1.669-0.246-2.489
		c-0.432-2.308-0.658-4.629-0.123-6.932c0.621-2.673,1.486-5.29,2.041-7.974c1.102-5.319,2.23-10.645,2.096-16.131
		c-0.023-0.895,0.104-1.793,0.16-2.69c0.057,0.002,0.113,0.005,0.17,0.007c0,1.323,0,2.647,0,3.971
		c0.799-1.905,1.447-3.831,2.012-5.781c0.063-0.213-0.301-0.703-0.576-0.834c-2.096-0.997-4.215-1.949-6.34-2.885
		c-0.758-0.333-1.551-0.583-2.305-0.861c-2.555,3.428-5.951,4.919-10.08,4.921c-4.16,0.003-7.572-1.518-10.18-5.039
		c-2.654,1.165-5.332,2.293-7.969,3.517c-1.391,0.646-1.355,0.722-0.877,2.193c0.045,0.133,0.07,0.271,0.115,0.404
		c0.449,1.368,0.9,2.736,1.352,4.104c0.078-0.01,0.154-0.021,0.232-0.031C32.662,15.899,32.662,14.833,32.662,13.767z M71.514,67.21
		c2.078-0.336,4.016-0.648,6.006-0.971c-0.018-0.251-0.035-0.613-0.072-0.972c-0.479-4.599-0.945-9.198-1.445-13.795
		c-0.314-2.89-0.398-5.818-1.402-8.599c-0.074-0.203-0.115-0.459-0.061-0.659c0.326-1.171-0.027-2.271-0.271-3.394
		c-0.242-1.12-0.486-2.249-0.6-3.386c-0.533-5.353-0.941-10.719-1.568-16.061c-0.264-2.265-0.93-4.484-1.469-6.712
		c-0.105-0.439-0.459-0.819-0.814-1.427c-0.592,1.809-1.127,3.335-1.586,4.884c-0.381,1.279-0.758,2.568-0.984,3.88
		c-0.537,3.114-0.879,6.267-1.506,9.361c-0.449,2.214-0.641,4.35,0.045,6.534c0.436,1.388,0.771,2.808,1.156,4.212
		c0.26,0.944,0.842,1.93,0.719,2.821c-0.229,1.691,0.313,3.212,0.553,4.8c0.574,3.791,1.135,7.584,1.77,11.365
		C70.443,61.85,71.014,64.587,71.514,67.21z M22.471,66.223c2.068,0.346,3.979,0.666,5.961,0.997
		c-0.006,0.02,0.063-0.16,0.098-0.345c0.836-4.49,1.779-8.964,2.467-13.476c0.529-3.463,1.381-6.898,1.262-10.445
		c-0.01-0.271,0.09-0.551,0.162-0.82c0.711-2.708,1.469-5.405,2.117-8.129c0.188-0.789,0.18-1.671,0.055-2.479
		c-0.332-2.154-0.77-4.292-1.176-6.435c-0.607-3.204-0.516-6.534-1.842-9.611c-0.557-1.294-0.918-2.673-1.379-4.051
		c-0.766,0.707-1.207,1.362-1.459,3.124c-0.732,5.129-1.373,10.271-2.006,15.412c-0.336,2.724-0.533,5.464-0.883,8.186
		c-0.184,1.434-0.785,2.818-0.414,4.311c0.041,0.17-0.08,0.377-0.115,0.569c-0.377,2.035-0.855,4.058-1.109,6.108
		c-0.502,4.058-0.891,8.129-1.307,12.196C22.73,63.004,22.605,64.676,22.471,66.223z M43.359,1.635
		c-0.293,0.656-0.473,1.433-0.922,1.994c-0.979,1.227-1.041,1.469,0.016,2.615c0.244,0.266,0.52,0.508,0.803,0.733
		c2.604,2.069,5.596,2.534,8.785,2.046c2.402-0.368,4.436-1.438,5.969-3.383c0.426-0.539,0.434-1.087-0.039-1.498
		c-0.811-0.706-1.277-1.511-1.172-2.605c0.002-0.02-0.084-0.048-0.131-0.07c-0.463,1.06-1.248,1.84-2.42,2.243
		c-2.729,0.94-5.494,0.958-8.236,0.095C44.82,3.43,43.773,2.771,43.359,1.635z M40.301,6.71c4.307,6.419,15.346,6.202,19.322,0.036
		c-0.365-0.285-0.732-0.572-1.096-0.856c-4.529,5.113-12.98,4.77-17.012,0.043C41.129,6.18,40.736,6.431,40.301,6.71z M56.158,1.398
		c-0.535-0.069-0.99-0.177-1.445-0.179c-3.107-0.016-6.217-0.012-9.326-0.007c-0.336,0-0.674,0.021-1.004,0.077
		c-0.488,0.082-0.672,0.386-0.285,0.745c0.508,0.469,1.035,1.009,1.656,1.243c2.684,1.015,5.43,0.984,8.152,0.139
		C54.875,3.116,55.688,2.534,56.158,1.398z M72.262,67.794c1.6,0.153,3.174,0.15,4.578-0.819
		C75.234,66.798,73.699,67.021,72.262,67.794z M23.105,66.848c0.873,0.919,3.564,1.353,4.678,0.866
		C26.326,67.018,24.846,66.863,23.105,66.848z"/>
	<path fill-rule="evenodd" clip-rule="evenodd" fill="#FFFFFF" d="M71.514,67.21c-0.5-2.623-1.07-5.36-1.531-8.116
		c-0.635-3.781-1.195-7.574-1.77-11.365c-0.24-1.588-0.781-3.108-0.553-4.8c0.123-0.892-0.459-1.877-0.719-2.821
		c-0.385-1.404-0.721-2.824-1.156-4.212c-0.686-2.185-0.494-4.32-0.045-6.534c0.627-3.095,0.969-6.247,1.506-9.361
		c0.227-1.312,0.604-2.601,0.984-3.88c0.459-1.549,0.994-3.075,1.586-4.884c0.355,0.607,0.709,0.987,0.814,1.427
		c0.539,2.228,1.205,4.447,1.469,6.712c0.627,5.342,1.035,10.708,1.568,16.061c0.113,1.137,0.357,2.266,0.6,3.386
		c0.244,1.123,0.598,2.223,0.271,3.394c-0.055,0.2-0.014,0.456,0.061,0.659c1.004,2.78,1.088,5.709,1.402,8.599
		c0.5,4.597,0.967,9.196,1.445,13.795c0.037,0.358,0.055,0.721,0.072,0.972C75.529,66.562,73.592,66.874,71.514,67.21z"/>
	<path fill-rule="evenodd" clip-rule="evenodd" fill="#FFFFFF" d="M22.471,66.223c0.135-1.547,0.26-3.219,0.432-4.887
		c0.416-4.067,0.805-8.139,1.307-12.196c0.254-2.051,0.732-4.073,1.109-6.108c0.035-0.192,0.156-0.399,0.115-0.569
		c-0.371-1.492,0.23-2.877,0.414-4.311c0.35-2.722,0.547-5.462,0.883-8.186c0.633-5.142,1.273-10.283,2.006-15.412
		c0.252-1.762,0.693-2.417,1.459-3.124c0.461,1.378,0.822,2.757,1.379,4.051c1.326,3.077,1.234,6.407,1.842,9.611
		c0.406,2.143,0.844,4.28,1.176,6.435c0.125,0.808,0.133,1.689-0.055,2.479c-0.648,2.724-1.406,5.421-2.117,8.129
		c-0.072,0.27-0.172,0.549-0.162,0.82c0.119,3.547-0.732,6.982-1.262,10.445c-0.688,4.512-1.631,8.985-2.467,13.476
		c-0.035,0.185-0.104,0.364-0.098,0.345C26.449,66.889,24.539,66.568,22.471,66.223z"/>
	<path fill-rule="evenodd" clip-rule="evenodd" fill="#FFFFFF" d="M43.359,1.635c0.414,1.137,1.461,1.795,2.652,2.17
		c2.742,0.863,5.508,0.846,8.236-0.095c1.172-0.403,1.957-1.184,2.42-2.244c0.047,0.023,0.133,0.052,0.131,0.071
		c-0.105,1.095,0.361,1.899,1.172,2.605c0.473,0.411,0.465,0.959,0.039,1.498c-1.533,1.944-3.566,3.015-5.969,3.383
		c-3.189,0.488-6.182,0.023-8.785-2.046c-0.283-0.226-0.559-0.468-0.803-0.733c-1.057-1.146-0.994-1.389-0.016-2.615
		C42.887,3.067,43.066,2.291,43.359,1.635z"/>
	<path fill-rule="evenodd" clip-rule="evenodd" fill="#FFFFFF" d="M40.301,6.71c0.436-0.279,0.828-0.53,1.215-0.777
		c4.031,4.727,12.482,5.07,17.012-0.043c0.363,0.284,0.73,0.571,1.096,0.856C55.646,12.912,44.607,13.129,40.301,6.71z"/>
	<path fill-rule="evenodd" clip-rule="evenodd" fill="#FFFFFF" d="M56.158,1.398c-0.471,1.136-1.283,1.718-2.252,2.019
		c-2.723,0.846-5.469,0.876-8.152-0.139c-0.621-0.234-1.148-0.774-1.656-1.243c-0.387-0.359-0.203-0.663,0.285-0.745
		c0.33-0.057,0.668-0.077,1.004-0.077c3.109-0.005,6.219-0.009,9.326,0.007C55.168,1.222,55.623,1.329,56.158,1.398z"/>
	<path fill-rule="evenodd" clip-rule="evenodd" fill="#FFFFFF" d="M72.262,67.794c1.438-0.773,2.973-0.996,4.578-0.819
		C75.436,67.944,73.861,67.947,72.262,67.794z"/>
	<path fill-rule="evenodd" clip-rule="evenodd" fill="#FFFFFF" d="M23.105,66.848c1.74,0.016,3.221,0.17,4.678,0.866
		C26.67,68.2,23.979,67.767,23.105,66.848z"/>
	<path fill-rule="evenodd" clip-rule="evenodd" fill="#FFFFFF" d="M69.289,11.478c0.063-0.213-0.301-0.703-0.576-0.834
		c-2.096-0.997-4.215-1.949-6.34-2.885c-0.758-0.333-1.551-0.583-2.305-0.861c-2.555,3.428-5.951,4.919-10.08,4.921
		c-4.16,0.003-7.572-1.518-10.18-5.039c-2.654,1.165-5.332,2.293-7.969,3.517c-1.391,0.646-1.355,0.722-0.877,2.193
		c0.045,0.133,0.07,0.271,0.115,0.404c0.449,1.368,0.9,2.736,1.352,4.104c0.078-0.01,0.154-0.021,0.232-0.031
		c0-1.066,0-2.133,0-3.199c0.078-0.002,0.158-0.004,0.236-0.006c0.023,0.53,0.076,1.06,0.066,1.59
		c-0.086,4.594,0.588,9.111,1.518,13.584c0.695,3.34,1.568,6.644,2.426,9.947c0.676,2.604,0.688,5.191,0.184,7.823
		c-0.213,1.115-0.184,2.275-0.287,3.412c-0.047,0.521-0.063,1.066-0.236,1.549c-0.607,1.686-1.322,3.333-1.916,5.022
		c-1.598,4.552-2.693,9.19-2.408,14.073c0.197,3.415,0.238,6.839,0.486,10.249c0.371,5.114,0.867,10.22,1.289,15.33
		c0.047,0.57,0.275,0.871,0.818,0.974c1.344,0.255,2.68,0.567,4.031,0.764c4.502,0.655,9.041,0.683,13.576,0.614
		c3.973-0.061,7.936-0.306,11.834-1.161c1.602-0.352,1.654-0.344,1.76-1.814c0.549-7.519,1.119-15.036,1.574-22.561
		c0.186-3.044,0.303-6.111-0.287-9.142c-0.756-3.894-2.02-7.633-3.51-11.296c-0.426-1.042-0.805-2.031-0.637-3.222
		c0.113-0.804-0.094-1.669-0.246-2.489c-0.432-2.308-0.658-4.629-0.123-6.932c0.621-2.673,1.486-5.29,2.041-7.974
		c1.102-5.319,2.23-10.645,2.096-16.131c-0.023-0.895,0.104-1.793,0.16-2.69c0.057,0.002,0.113,0.005,0.17,0.007
		c0,1.323,0,2.647,0,3.971C68.076,15.354,68.725,13.428,69.289,11.478z M51.584,35.297h-3.121V29.58h3.121V35.297z M51.584,27.388
		h-3.121v-5.717h3.121V27.388z M51.584,19.479h-3.121v-5.718h3.121V19.479z"/>
</g>
</svg>
