<?xml version="1.0" encoding="utf-8"?>
<!-- Generator: Adobe Illustrator 20.1.0, SVG Export Plug-In . SVG Version: 6.00 Build 0)  -->
<svg version="1.1" id="Layer_1" xmlns="http://www.w3.org/2000/svg" xmlns:xlink="http://www.w3.org/1999/xlink" x="0px" y="0px"
	 viewBox="0 0 1148.9 255" style="enable-background:new 0 0 1148.9 255;" xml:space="preserve">
<style type="text/css">
	.st0{display:none;}
	.st1{display:inline;}
	.st2{fill:#576484;}
	.st3{fill:#7D8DB7;}
	.st4{display:inline;fill:#202A47;}
	.st5{fill:#202A47;}
	.st6{display:inline;fill:#83899B;}
	.st7{fill:#4A505E;}
	.st8{fill:#407ABC;}
	.st9{fill:#D0549E;}
	.st10{display:none;fill:#202A47;enable-background:new    ;}
	.st11{font-family:'Lato-Regular';}
	.st12{font-size:61.1117px;}
	.st13{letter-spacing:12;}
</style>
<g class="st0">
	<g class="st1">
		<path class="st2" d="M-1009.2-100.6c-19.9,0-36.1,16.2-36.1,36.1s16.2,36.1,36.1,36.1c19.9,0,36.1-16.2,36.1-36.1
			S-989.2-100.6-1009.2-100.6z M-1009.2-34.4c-16.6,0-30.1-13.5-30.1-30.1s13.5-30.1,30.1-30.1c16.6,0,30.1,13.5,30.1,30.1
			C-979-47.9-992.5-34.4-1009.2-34.4z"/>
		<g>
			<g>
				<path class="st2" d="M-1006.5-56.2c0,1.7-1.4,3-3,3l0,0c-1.7,0-3,3.3-3,1.6v-32.7c0-1.7,1.4-3,3-3l0,0c1.7,0,3,1.4,3,3V-56.2z"
					/>
				<path class="st2" d="M-1004.8-58.5c-4.3,0-7.8,3.5-7.8,7.8s3.5,7.8,7.8,7.8s7.8-3.5,7.8-7.8C-997-55-1000.5-58.5-1004.8-58.5z
					 M-1004.8-47.7c-1.7,0-3-1.3-3-3s1.3-3,3-3s3,1.3,3,3C-1001.8-49.1-1003.2-47.7-1004.8-47.7z"/>
			</g>
			<g>
				<path class="st2" d="M-1018.4-68c-1.7,0-3,1.4-3,3l0,0c0,1.7-3.3,3-1.6,3h32.7c1.7,0,3-1.4,3-3l0,0c0-1.7-1.4-3-3-3H-1018.4z"/>
				<path class="st2" d="M-1023.8-77.5c-4.3,0-7.8,3.5-7.8,7.8s3.5,7.8,7.8,7.8c4.3,0,7.8-3.5,7.8-7.8
					C-1016.1-74-1019.5-77.5-1023.8-77.5z M-1023.8-72.7c1.7,0,3,1.3,3,3s-1.3,3-3,3c-1.7,0-3-1.3-3-3
					C-1026.8-71.4-1025.5-72.7-1023.8-72.7z"/>
			</g>
		</g>
	</g>
	<g class="st1">
		<path class="st3" d="M-574.9-67.9c-6.1,0-11,4.9-11,11l0,0c0,6.1-12,11-5.9,11h117.9c6.1,0,11-4.9,11-11l0,0c0-6.1-4.9-11-11-11
			H-574.9z"/>
		<path class="st3" d="M-594.5-102.1c-15.5,0-28.1,12.6-28.1,28.1s12.6,28.1,28.1,28.1s28.1-12.6,28.1-28.1
			C-566.4-89.6-579-102.1-594.5-102.1z M-594.5-84.9c6,0,10.8,4.9,10.8,10.8c0,6-4.9,10.8-10.8,10.8c-6,0-10.8-4.9-10.8-10.8
			C-605.4-80-600.5-84.9-594.5-84.9z"/>
	</g>
	<path class="st4" d="M-525-28.6c-8.9,0-16.1,7.2-16.1,16.1s7.2,16.1,16.1,16.1c8.9,0,16.1-7.2,16.1-16.1
		C-509-21.4-516.2-28.6-525-28.6z M-525-1.7c-6,0-10.8-4.9-10.8-10.8c0-6,4.9-10.8,10.8-10.8c6,0,10.8,4.9,10.8,10.8
		C-514.2-6.6-519.1-1.7-525-1.7z"/>
	<g class="st1">
		<path class="st5" d="M-1020.5-64.9h31v1.3h-14.1h-2.6h-1.3h-2.6h-14.1v-0.7C-1022.8-64.3-1021.5-64.5-1020.5-64.9z"/>
		<path class="st5" d="M-1018-67.6h28.5v1.3h-29.7C-1018.6-66.6-1018.2-67.1-1018-67.6z"/>
		<path class="st5" d="M-1016.5-71.4c0,2-0.7,3.8-2,5.2h-2c1.6-1.2,2.6-3.1,2.6-5.2c0-3.6-2.9-6.5-6.5-6.5c-3.6,0-6.5,2.9-6.5,6.5
			s2.9,6.5,6.5,6.5l0,0h4.4c-1.3,0.9-2.8,1.3-4.4,1.3c-4.3,0-7.9-3.5-7.9-7.9c0-4.3,3.5-7.9,7.9-7.9
			C-1020-79.3-1016.5-75.8-1016.5-71.4z"/>
		<path class="st5" d="M-1024.4-76.6c-2.8,0-5.1,2.3-5.1,5.1c0,2.8,2.3,5.1,5.1,5.1c2.8,0,5.1-2.3,5.1-5.1
			C-1019.2-74.3-1021.5-76.6-1024.4-76.6z M-1024.4-75.2c2.1,0,3.8,1.7,3.8,3.8c0,2.1-1.7,3.8-3.8,3.8c-2.1,0-3.8-1.7-3.8-3.8
			C-1028.2-73.5-1026.5-75.2-1024.4-75.2z"/>
	</g>
	<path class="st6" d="M-1005-62.3c-5.1,0-9.2,4.1-9.2,9.2s4.1,9.2,9.2,9.2s9.2-4.1,9.2-9.2C-995.8-58.2-999.9-62.3-1005-62.3z
		 M-1005-48.5c-2.6,0-4.6-2.1-4.6-4.6c0-2.6,2.1-4.6,4.6-4.6c2.6,0,4.6,2.1,4.6,4.6C-1000.3-50.6-1002.4-48.5-1005-48.5z"/>
	<g class="st1">
		<path class="st5" d="M-616.1-146.6v-31h-1.3v14.1v2.6v1.3v2.6v14.1h0.7C-616.7-144.2-616.5-145.5-616.1-146.6z"/>
		<path class="st5" d="M-613.4-149.1v-28.5h-1.3v29.7C-614.3-148.5-613.9-148.9-613.4-149.1z"/>
		<path class="st5" d="M-625.1-154.5h31v1.3h-14.1h-2.6h-1.3h-2.6h-14.1v-0.7C-627.4-153.8-626.1-154.1-625.1-154.5z"/>
		<path class="st5" d="M-622.6-157.1h28.5v1.3h-29.7C-623.2-156.2-622.8-156.6-622.6-157.1z"/>
		<path class="st5" d="M-621.1-161c0,2-0.7,3.8-2,5.2h-2c1.6-1.2,2.6-3.1,2.6-5.2c0-3.6-2.9-6.5-6.5-6.5s-6.5,2.9-6.5,6.5
			s2.9,6.5,6.5,6.5l0,0h4.4c-1.3,0.9-2.8,1.3-4.4,1.3c-4.3,0-7.9-3.5-7.9-7.9c0-4.3,3.5-7.9,7.9-7.9
			C-624.6-168.9-621.1-165.3-621.1-161z"/>
		<path class="st5" d="M-614.1-192.1c-20.7,0-37.5,16.8-37.5,37.5s16.8,37.5,37.5,37.5s37.5-16.8,37.5-37.5
			S-593.4-192.1-614.1-192.1z M-579-154.5c0,19.4-15.7,35-35,35c-19.4,0-35-15.7-35-35c0-19.4,15.7-35,35-35
			C-594.7-189.5-579-173.8-579-154.5z"/>
		<path class="st5" d="M-614.1-188.2c-18.6,0-33.6,15-33.6,33.6s15,33.6,33.6,33.6s33.6-15,33.6-33.6S-595.6-188.2-614.1-188.2z
			 M-582.7-154.5c0,17.3-14.1,31.4-31.4,31.4c-17.3,0-31.4-14.1-31.4-31.4s14.1-31.4,31.4-31.4
			C-596.7-185.9-582.7-171.8-582.7-154.5z"/>
		<path class="st5" d="M-609.5-151.9c-2.3,0-4.4,0.9-6,2.3v2.3c0.3-0.3,0.5-0.6,0.8-0.9v1.6c1.2-1.6,3.1-2.6,5.2-2.6
			c3.6,0,6.5,2.9,6.5,6.5s-2.9,6.5-6.5,6.5s-6.5-2.9-6.5-6.5l0,0v-4.4c-0.5,0.7-0.8,1.5-1.1,2.3v-3c-1,1.5-1.6,3.2-1.6,5.1
			c0,5,4.1,9.1,9.1,9.1s9.1-4.1,9.1-9.1C-600.4-147.8-604.5-151.9-609.5-151.9z"/>
		<path class="st5" d="M-609.5-147.9c-2.8,0-5.1,2.3-5.1,5.1c0,2.8,2.3,5.1,5.1,5.1s5.1-2.3,5.1-5.1
			C-604.4-145.6-606.7-147.9-609.5-147.9z M-609.5-140.1c-1.4,0-2.6-1.2-2.6-2.6s1.2-2.6,2.6-2.6c1.4,0,2.6,1.2,2.6,2.6
			C-606.9-141.3-608.1-140.1-609.5-140.1z"/>
		<rect x="-618" y="-154.9" class="st7" width="2.6" height="19.1"/>
	</g>
</g>
<g>
	<path class="st8" d="M282.2,54.4c0,10.3,8.1,18.4,18.4,18.4c12.3,0,22.3,9.9,22.3,22.2s-10,22.3-22.3,22.3H271v7.6h29.7
		c16.5,0,29.8-13.4,29.8-29.8c0-8-3.1-15.5-8.7-21.1c-5.6-5.6-13.1-8.6-21.1-8.6c-6,0-10.9-4.9-10.9-10.9c0-6.1,4.9-11,11-11h29.7
		V36h-29.7C290.6,35.8,282.2,44.1,282.2,54.4z"/>
	<path class="st8" d="M271,54.4c0,8,3.1,15.5,8.7,21.1c5.6,5.6,13.1,8.6,21.1,8.6c6,0.1,10.9,5,10.9,10.9c0,6.1-4.9,11-11,11H271
		v7.5h29.7c10.2,0,18.6-8.3,18.6-18.6c0-10-8.3-18.3-18.4-18.4h-0.1c-12.3,0-22.3-9.9-22.3-22.2s10-22.3,22.3-22.3h29.7v-7.5h-29.7
		C284.3,24.5,271,37.9,271,54.4z"/>
	<polygon class="st8" points="336.7,43.3 368.1,43.3 368.1,124.8 375.6,124.8 375.6,43.3 379.3,43.3 379.3,124.8 386.9,124.8 
		386.9,43.3 418.2,43.3 418.2,35.8 336.7,35.8 	"/>
	<rect x="336.7" y="24.5" class="st8" width="81.5" height="7.5"/>
	<polygon class="st8" points="435.7,65.2 432,65.2 432,24.5 424.4,24.5 424.4,72.8 435.7,72.8 435.7,76.5 424.4,76.5 424.4,124.8 
		432,124.8 432,84.1 435.7,84.1 435.7,124.8 443.3,124.8 443.3,24.5 435.7,24.5 	"/>
	<polygon class="st8" points="449.5,43.3 480.8,43.3 480.8,124.8 488.4,124.8 488.4,43.3 492.1,43.3 492.1,124.8 499.7,124.8 
		499.7,43.3 531,43.3 531,35.8 449.5,35.8 	"/>
	<rect x="449.5" y="24.5" class="st8" width="81.5" height="7.5"/>
	<path class="st8" d="M613.6,46.8l5.3-5.3l-2.2-2.2c-9.5-9.5-22-14.7-35.5-14.7c-13.4,0-26,5.2-35.4,14.7
		c-9.5,9.4-14.7,22-14.7,35.4s5.2,26,14.7,35.4c9.5,9.5,22,14.7,35.4,14.7c13.4,0,26-5.2,35.5-14.7l2.2-2.2l-5.3-5.3l-2.2,2.2
		c-8,8-18.7,12.4-30.1,12.4c-11.4,0-22.1-4.4-30.1-12.4s-12.4-18.7-12.4-30.1c0-11.4,4.4-22.1,12.4-30.1s18.7-12.4,30.1-12.4
		c11.4,0,22.1,4.4,30.1,12.4L613.6,46.8z"/>
	<path class="st8" d="M581.2,43.3c8.3,0,16.2,3.3,22.1,9.2l2.2,2.2l5.5-5.5l-2.2-2.2c-7.3-7.3-17.1-11.4-27.5-11.4
		c-10.4,0-20.2,4-27.5,11.4c-7.3,7.3-11.4,17.1-11.4,27.5s4,20.2,11.4,27.5c7.3,7.3,17.1,11.3,27.5,11.3c10.4,0,20.2-4,27.5-11.3
		l2.2-2.2l-5.5-5.5l-2.2,2.2c-5.9,5.9-13.7,9.2-22.1,9.2c-8.3,0-16.2-3.3-22.1-9.2c-5.9-5.9-9.2-13.7-9.2-22.1
		c0-8.3,3.3-16.2,9.2-22.1C565,46.6,572.9,43.3,581.2,43.3z"/>
	<polygon class="st8" points="670.8,65.2 642.6,65.2 642.6,24.5 635.1,24.5 635.1,65.2 631.4,65.2 631.4,24.5 623.8,24.5 
		623.8,72.8 670.8,72.8 670.8,76.5 623.8,76.5 623.8,124.8 631.4,124.8 631.4,84.1 635.1,84.1 635.1,124.8 642.6,124.8 642.6,84.1 
		670.8,84.1 670.8,124.8 678.4,124.8 678.4,24.5 670.8,24.5 	"/>
	<rect x="682.1" y="24.5" class="st8" width="7.5" height="100.3"/>
	<rect x="727.2" y="24.5" class="st8" width="81.5" height="7.5"/>
	<polygon class="st8" points="727.2,43.3 758.5,43.3 758.5,124.8 766.1,124.8 766.1,43.3 769.8,43.3 769.8,124.8 777.3,124.8 
		777.3,43.3 808.7,43.3 808.7,35.8 727.2,35.8 	"/>
	<rect x="946.6" y="24.5" class="st8" width="70.8" height="7.5"/>
	<polygon class="st8" points="946.6,124.8 954.1,124.8 954.1,43.3 957.9,43.3 957.9,124.8 965.4,124.8 965.4,84.1 1006.1,84.1 
		1006.1,76.5 965.4,76.5 965.4,72.8 1006.1,72.8 1006.1,65.2 965.4,65.2 965.4,43.3 1017.4,43.3 1017.4,35.8 946.6,35.8 	"/>
	<polygon class="st8" points="1034.9,65.2 1031.2,65.2 1031.2,24.5 1023.7,24.5 1023.7,72.8 1034.9,72.8 1034.9,76.5 1023.7,76.5 
		1023.7,124.8 1031.2,124.8 1031.2,84.1 1034.9,84.1 1034.9,124.8 1042.5,124.8 1042.5,24.5 1034.9,24.5 	"/>
	<polygon class="st8" points="1048.7,43.3 1080.1,43.3 1080.1,124.8 1087.6,124.8 1087.6,43.3 1091.3,43.3 1091.3,124.8 
		1098.9,124.8 1098.9,43.3 1130.2,43.3 1130.2,35.8 1048.7,35.8 	"/>
	<rect x="1048.7" y="24.5" class="st8" width="81.5" height="7.5"/>
	<path class="st8" d="M898.2,43.1l-2.2-2.7l-13.1,13.2c5,5.6,8,12.9,8,21c0,17.5-14.2,31.7-31.7,31.7s-31.7-14.2-31.7-31.7
		s14.2-31.7,31.7-31.7c8.1,0,15.4,3,21,8l13.2-13.2l-2.7-2.2c-8.8-7.1-20-11.1-31.4-11.1c-13.4,0-26,5.2-35.5,14.7
		c-9.5,9.4-14.7,22-14.7,35.4s5.2,26,14.7,35.4c9.5,9.5,22,14.7,35.4,14.7s26-5.2,35.4-14.7c8.8-8.8,13.9-20.4,14.6-32.9
		C909.9,64.7,906,52.7,898.2,43.1z M889.3,104.7c-8,8.1-18.7,12.5-30.1,12.5c-11.4,0-22.1-4.4-30.1-12.5c-8.1-8-12.5-18.7-12.5-30.1
		c0-11.4,4.4-22.1,12.5-30.1c8-8,18.7-12.4,30-12.4c8,0,16,2.3,22.8,6.6l-2.8,2.7c-6-3.7-12.9-5.6-20-5.6c-10.4,0-20.1,4-27.4,11.4
		c-15.1,15.1-15.1,39.8,0,54.9c7.3,7.3,17.1,11.4,27.5,11.4s20.2-4,27.5-11.4c12.7-12.7,14.9-32.2,5.8-47.4l2.7-2.8
		C905.6,68.5,903.4,90.6,889.3,104.7z"/>
</g>
<g>
	<path class="st8" d="M297.4,191.8c-0.2,0.3-0.4,0.5-0.6,0.7c-0.2,0.2-0.5,0.2-0.8,0.2c-0.3,0-0.7-0.2-1.2-0.5s-1-0.7-1.7-1.2
		c-0.7-0.4-1.5-0.8-2.5-1.1s-2.2-0.5-3.6-0.5c-1.3,0-2.5,0.2-3.5,0.5c-1,0.4-1.9,0.8-2.5,1.5c-0.7,0.6-1.2,1.3-1.6,2.1
		c-0.3,0.8-0.5,1.7-0.5,2.7c0,1.2,0.3,2.2,0.9,3c0.6,0.8,1.4,1.5,2.4,2.1s2.1,1.1,3.4,1.5c1.2,0.4,2.5,0.8,3.9,1.3
		c1.3,0.5,2.6,1,3.9,1.5c1.2,0.6,2.4,1.3,3.4,2.1c1,0.9,1.8,1.9,2.4,3.1c0.6,1.2,0.9,2.8,0.9,4.6c0,1.9-0.3,3.7-1,5.4
		c-0.7,1.7-1.6,3.1-2.9,4.4c-1.3,1.2-2.8,2.2-4.6,2.9c-1.8,0.7-3.9,1.1-6.2,1.1c-2.8,0-5.4-0.5-7.7-1.5c-2.3-1-4.3-2.4-6-4.2
		l1.7-2.8c0.2-0.2,0.4-0.4,0.6-0.6c0.2-0.2,0.5-0.2,0.8-0.2c0.4,0,0.9,0.2,1.5,0.7c0.5,0.5,1.2,1,2.1,1.5c0.8,0.5,1.8,1.1,3,1.5
		c1.2,0.5,2.6,0.7,4.3,0.7c1.4,0,2.7-0.2,3.8-0.6c1.1-0.4,2-0.9,2.8-1.6c0.8-0.7,1.4-1.5,1.8-2.5s0.6-2.1,0.6-3.3
		c0-1.3-0.3-2.4-0.9-3.3c-0.6-0.8-1.4-1.6-2.4-2.1c-1-0.6-2.1-1.1-3.3-1.5c-1.2-0.4-2.5-0.8-3.9-1.2c-1.3-0.4-2.6-0.9-3.9-1.5
		c-1.2-0.6-2.4-1.3-3.3-2.1c-1-0.9-1.8-2-2.4-3.3c-0.6-1.3-0.9-2.9-0.9-4.9c0-1.6,0.3-3,0.9-4.5c0.6-1.4,1.5-2.7,2.6-3.9
		c1.1-1.1,2.5-2,4.2-2.7c1.7-0.7,3.6-1,5.8-1c2.4,0,4.7,0.4,6.7,1.2s3.8,1.9,5.3,3.4L297.4,191.8z"/>
	<path class="st8" d="M329.6,229.2c-2.4,0-4.3-0.7-5.6-2.1c-1.3-1.4-2-3.3-2-5.9v-18.9h-3.7c-0.3,0-0.6-0.1-0.8-0.3
		s-0.3-0.5-0.3-0.9v-2.2l5.1-0.6l1.2-9.6c0-0.3,0.2-0.6,0.4-0.7c0.2-0.2,0.5-0.3,0.9-0.3h2.7v10.7h8.9v3.9h-8.9v18.6
		c0,1.3,0.3,2.3,0.9,2.9c0.6,0.6,1.5,1,2.5,1c0.6,0,1.1-0.1,1.5-0.2c0.4-0.2,0.8-0.3,1.1-0.5c0.3-0.2,0.6-0.3,0.8-0.5
		c0.2-0.2,0.4-0.2,0.6-0.2c0.3,0,0.5,0.2,0.8,0.5l1.6,2.6c-0.9,0.9-2.1,1.6-3.4,2.1C332.4,229,331,229.2,329.6,229.2z"/>
	<path class="st8" d="M364,188c0,0.5-0.1,1-0.3,1.5c-0.2,0.5-0.5,0.9-0.9,1.2c-0.4,0.4-0.8,0.6-1.2,0.8c-0.5,0.2-1,0.3-1.5,0.3
		s-1-0.1-1.5-0.3s-0.9-0.5-1.2-0.8c-0.4-0.4-0.6-0.8-0.8-1.2c-0.2-0.5-0.3-1-0.3-1.5s0.1-1,0.3-1.5c0.2-0.5,0.5-0.9,0.8-1.2
		c0.4-0.4,0.8-0.6,1.2-0.8c0.5-0.2,0.9-0.3,1.5-0.3c0.5,0,1,0.1,1.5,0.3s0.9,0.5,1.2,0.8c0.4,0.4,0.6,0.8,0.9,1.2
		C363.9,187,364,187.5,364,188z M362.7,197.8v31h-5.4v-31H362.7z"/>
	<path class="st8" d="M395.4,229.2c-2.4,0-4.3-0.7-5.6-2.1c-1.3-1.4-2-3.3-2-5.9v-18.9h-3.7c-0.3,0-0.6-0.1-0.8-0.3
		c-0.2-0.2-0.3-0.5-0.3-0.9v-2.2l5.1-0.6l1.3-9.6c0-0.3,0.2-0.6,0.4-0.7c0.2-0.2,0.5-0.3,0.9-0.3h2.7v10.7h8.9v3.9h-8.9v18.6
		c0,1.3,0.3,2.3,1,2.9c0.6,0.6,1.4,1,2.4,1c0.6,0,1.1-0.1,1.5-0.2c0.4-0.2,0.8-0.3,1.1-0.5c0.3-0.2,0.6-0.3,0.8-0.5
		c0.2-0.2,0.4-0.2,0.6-0.2c0.3,0,0.5,0.2,0.8,0.5l1.6,2.6c-0.9,0.9-2.1,1.6-3.4,2.1C398.2,229,396.8,229.2,395.4,229.2z"/>
	<path class="st8" d="M443.6,203.3c-0.2,0.2-0.3,0.4-0.5,0.5c-0.2,0.1-0.4,0.2-0.7,0.2c-0.3,0-0.6-0.1-1-0.4
		c-0.4-0.3-0.8-0.5-1.4-0.8s-1.2-0.6-2-0.8c-0.8-0.3-1.7-0.4-2.9-0.4c-1.5,0-2.8,0.3-4,0.8c-1.2,0.5-2.1,1.3-2.9,2.3
		s-1.4,2.2-1.8,3.7s-0.6,3.1-0.6,4.9c0,1.9,0.2,3.5,0.6,5c0.4,1.5,1,2.7,1.8,3.7c0.8,1,1.7,1.7,2.8,2.3c1.1,0.5,2.4,0.8,3.7,0.8
		c1.3,0,2.4-0.2,3.3-0.5c0.9-0.3,1.6-0.7,2.1-1.1c0.6-0.4,1-0.7,1.4-1.1c0.4-0.3,0.7-0.5,1.1-0.5c0.5,0,0.8,0.2,1,0.5l1.5,2
		c-1.3,1.6-3,2.9-5,3.6c-2,0.8-4.1,1.1-6.4,1.1c-1.9,0-3.7-0.4-5.4-1.1c-1.7-0.7-3.1-1.7-4.3-3.1c-1.2-1.4-2.2-3-2.9-5
		c-0.7-2-1.1-4.2-1.1-6.7c0-2.3,0.3-4.4,1-6.4c0.6-2,1.6-3.6,2.8-5.1c1.2-1.4,2.8-2.5,4.6-3.3c1.8-0.8,3.9-1.2,6.2-1.2
		c2.2,0,4.1,0.3,5.7,1.1c1.7,0.7,3.1,1.7,4.4,3L443.6,203.3z"/>
	<path class="st8" d="M464.7,228.7v-45h5.4v18.2c1.3-1.4,2.8-2.5,4.4-3.4c1.6-0.8,3.5-1.3,5.6-1.3c1.7,0,3.2,0.3,4.5,0.8
		c1.3,0.6,2.4,1.3,3.2,2.4c0.9,1,1.5,2.3,2,3.7c0.4,1.5,0.7,3,0.7,4.8v19.7h-5.4v-19.7c0-2.3-0.5-4.2-1.6-5.4
		c-1.1-1.3-2.7-1.9-4.9-1.9c-1.6,0-3.1,0.4-4.5,1.2s-2.7,1.8-3.9,3.1v22.8L464.7,228.7L464.7,228.7z"/>
	<path class="st8" d="M519.7,188c0,0.5-0.1,1-0.3,1.5s-0.5,0.9-0.9,1.2c-0.4,0.4-0.8,0.6-1.2,0.8c-0.5,0.2-1,0.3-1.5,0.3
		s-1-0.1-1.5-0.3s-0.9-0.5-1.2-0.8c-0.3-0.4-0.6-0.8-0.8-1.2c-0.2-0.5-0.3-1-0.3-1.5s0.1-1,0.3-1.5s0.5-0.9,0.8-1.2
		c0.4-0.4,0.8-0.6,1.2-0.8c0.5-0.2,1-0.3,1.5-0.3s1,0.1,1.5,0.3s0.9,0.5,1.2,0.8c0.4,0.4,0.6,0.8,0.9,1.2
		C519.6,187,519.7,187.5,519.7,188z M518.5,197.8v31h-5.4v-31H518.5z"/>
	<path class="st8" d="M541.7,228.7v-31h3.2c0.8,0,1.3,0.4,1.5,1.1l0.4,3.4c1.3-1.5,2.9-2.7,4.5-3.6c1.7-0.9,3.6-1.4,5.8-1.4
		c1.7,0,3.2,0.3,4.5,0.8c1.3,0.6,2.4,1.3,3.2,2.4c0.9,1,1.5,2.3,2,3.7c0.5,1.5,0.7,3,0.7,4.8v19.7h-5.4v-19.7c0-2.3-0.5-4.2-1.6-5.4
		c-1.1-1.3-2.7-1.9-4.9-1.9c-1.6,0-3.1,0.4-4.5,1.2c-1.4,0.8-2.7,1.8-3.9,3.1v22.8L541.7,228.7L541.7,228.7z"/>
	<path class="st8" d="M599.8,197.2c1.3,0,2.6,0.2,3.8,0.4c1.2,0.3,2.2,0.7,3.2,1.3h8.4v2c0,0.7-0.4,1.1-1.3,1.3l-3.5,0.5
		c0.7,1.3,1,2.8,1,4.4c0,1.5-0.3,2.9-0.9,4.1c-0.6,1.2-1.4,2.3-2.4,3.2s-2.2,1.6-3.7,2c-1.4,0.5-3,0.7-4.7,0.7
		c-1.5,0-2.8-0.2-4.1-0.5c-0.7,0.4-1.1,0.9-1.5,1.4c-0.3,0.5-0.5,1-0.5,1.4c0,0.8,0.3,1.3,0.9,1.7c0.6,0.4,1.4,0.7,2.4,0.8
		c1,0.2,2.1,0.3,3.3,0.3s2.5,0,3.8,0s2.6,0.1,3.8,0.3s2.4,0.6,3.3,1.1c1,0.5,1.8,1.2,2.4,2.1c0.6,0.9,0.9,2.1,0.9,3.5
		c0,1.3-0.3,2.6-1,3.9c-0.7,1.3-1.6,2.4-2.9,3.4c-1.2,1-2.8,1.8-4.6,2.3c-1.8,0.6-3.8,0.9-6.1,0.9c-2.3,0-4.2-0.2-5.9-0.7
		c-1.7-0.5-3.1-1.1-4.2-1.8c-1.1-0.7-2-1.6-2.5-2.6c-0.6-1-0.8-2-0.8-3.1c0-1.5,0.5-2.8,1.5-3.9c1-1.1,2.3-1.9,4-2.6
		c-0.9-0.4-1.6-0.9-2.1-1.6c-0.5-0.7-0.8-1.6-0.8-2.7c0-0.4,0.1-0.9,0.2-1.4c0.2-0.5,0.4-0.9,0.7-1.4s0.7-0.9,1.2-1.3
		c0.5-0.4,1.1-0.8,1.7-1.1c-1.5-0.9-2.7-2-3.6-3.4c-0.9-1.4-1.3-3.1-1.3-5c0-1.5,0.3-2.9,0.9-4.1c0.6-1.2,1.4-2.3,2.4-3.2
		s2.3-1.5,3.7-2C596.6,197.5,598.1,197.2,599.8,197.2z M609.5,230.3c0-0.8-0.2-1.4-0.6-1.9c-0.4-0.5-1-0.8-1.7-1.1s-1.6-0.4-2.5-0.6
		c-1-0.1-2-0.2-3-0.2c-1.1,0-2.1,0-3.2,0c-1.1,0-2.1-0.1-3.1-0.4c-1.2,0.6-2.1,1.2-2.8,2c-0.7,0.8-1.1,1.7-1.1,2.8
		c0,0.7,0.2,1.3,0.5,2c0.3,0.6,0.9,1.1,1.6,1.6c0.7,0.4,1.7,0.8,2.8,1c1.1,0.3,2.4,0.4,3.9,0.4s2.8-0.1,3.9-0.4
		c1.2-0.3,2.1-0.7,3-1.2c0.8-0.5,1.4-1.1,1.8-1.8C609.3,231.9,609.5,231.1,609.5,230.3z M599.8,213.6c1.1,0,2.1-0.2,2.9-0.5
		s1.6-0.7,2.1-1.3c0.6-0.5,1-1.2,1.3-2s0.4-1.6,0.4-2.5c0-1.9-0.6-3.4-1.7-4.5c-1.2-1.1-2.8-1.7-5-1.7s-3.9,0.6-5,1.7
		c-1.1,1.1-1.7,2.6-1.7,4.5c0,0.9,0.2,1.8,0.4,2.5c0.3,0.8,0.7,1.4,1.3,2s1.3,1,2.1,1.3C597.8,213.4,598.8,213.6,599.8,213.6z"/>
	<path class="st8" d="M675.5,184.4c1.6,0,3.1,0.3,4.4,0.8s2.5,1.2,3.4,2.1c1,0.9,1.7,1.9,2.3,3s0.9,2.3,1,3.5l-3.4,0.7
		c-0.1,0-0.2,0-0.3,0c-0.3,0-0.5-0.1-0.8-0.2c-0.2-0.1-0.4-0.4-0.5-0.8c-0.1-0.5-0.4-1.1-0.7-1.6c-0.3-0.6-0.7-1.1-1.2-1.6
		s-1.1-0.9-1.8-1.2s-1.5-0.5-2.5-0.5s-1.9,0.2-2.7,0.5c-0.8,0.3-1.5,0.8-2.1,1.4c-0.6,0.6-1,1.3-1.3,2.1s-0.5,1.6-0.5,2.5
		c0,0.7,0.1,1.4,0.3,2.1c0.2,0.7,0.4,1.3,0.8,2c0.3,0.7,0.8,1.3,1.3,2c0.6,0.7,1.2,1.4,2,2.2l12.6,12.8c0.8-1.4,1.4-2.8,1.9-4.3
		s0.8-3,0.9-4.5c0-0.4,0.2-0.7,0.4-0.9s0.5-0.3,0.9-0.3h3.4c0,2.3-0.4,4.6-1.1,6.9c-0.7,2.3-1.7,4.4-3.1,6.4l9.2,9.3h-5.4
		c-0.6,0-1.1-0.1-1.4-0.2c-0.4-0.1-0.8-0.4-1.2-0.9l-4.4-4.4c-1.9,1.9-4.1,3.3-6.6,4.4c-2.5,1.1-5.2,1.6-8.2,1.6
		c-1.6,0-3.2-0.3-4.8-0.8c-1.6-0.6-3-1.4-4.2-2.4c-1.2-1.1-2.2-2.3-3-3.8s-1.1-3.2-1.1-5.1c0-1.4,0.2-2.8,0.7-4
		c0.5-1.3,1.1-2.5,2-3.5c0.8-1.1,1.8-2,3-2.9s2.4-1.6,3.8-2.2c-1.2-1.6-2.2-3.1-2.7-4.6c-0.6-1.5-0.9-3-0.9-4.6
		c0-1.5,0.3-2.9,0.8-4.2s1.3-2.4,2.3-3.4s2.3-1.7,3.7-2.3C672.1,184.7,673.7,184.4,675.5,184.4z M663.4,216.6c0,1.3,0.3,2.5,0.7,3.5
		c0.5,1,1.1,1.9,1.9,2.6c0.8,0.7,1.7,1.2,2.7,1.6c1,0.4,2.1,0.5,3.1,0.5c2.3,0,4.3-0.4,6.1-1.2c1.8-0.8,3.4-1.9,4.8-3.3l-12.9-13
		c-2.2,1.2-3.8,2.5-4.9,4.2C663.9,212.9,663.4,214.7,663.4,216.6z"/>
	<path class="st8" d="M778.8,228.7h-4.6c-0.5,0-1-0.1-1.3-0.4c-0.3-0.3-0.6-0.6-0.7-1l-4.1-10.6h-19.7l-4.1,10.6
		c-0.1,0.4-0.4,0.7-0.7,1s-0.8,0.4-1.3,0.4h-4.6l17.5-43.8h6L778.8,228.7z M750.1,212.5h16.4l-6.9-17.8c-0.4-1.1-0.9-2.5-1.3-4.1
		c-0.2,0.8-0.4,1.6-0.7,2.3c-0.2,0.7-0.4,1.3-0.6,1.9L750.1,212.5z"/>
	<path class="st8" d="M803.2,183.7v45h-5.4v-45H803.2z"/>
	<path class="st8" d="M835.9,229.2c-2.4,0-4.3-0.7-5.6-2.1c-1.3-1.4-2-3.3-2-5.9v-18.9h-3.7c-0.3,0-0.6-0.1-0.8-0.3
		s-0.3-0.5-0.3-0.9v-2.2l5.1-0.6l1.3-9.6c0-0.3,0.2-0.6,0.4-0.7c0.2-0.2,0.5-0.3,0.9-0.3h2.7v10.7h8.9v3.9h-8.9v18.6
		c0,1.3,0.3,2.3,1,2.9c0.6,0.6,1.4,1,2.4,1c0.6,0,1.1-0.1,1.5-0.2c0.4-0.2,0.8-0.3,1.1-0.5s0.6-0.3,0.8-0.5s0.4-0.2,0.6-0.2
		c0.3,0,0.5,0.2,0.8,0.5l1.6,2.6c-0.9,0.9-2.1,1.6-3.4,2.1C838.7,229,837.3,229.2,835.9,229.2z"/>
	<path class="st8" d="M875.3,197.3c1.8,0,3.6,0.3,5.1,0.9c1.6,0.6,2.9,1.5,4.1,2.7c1.1,1.2,2,2.6,2.7,4.3c0.6,1.7,1,3.7,1,5.9
		c0,0.9-0.1,1.4-0.3,1.7s-0.5,0.4-1,0.4h-20.6c0,2,0.3,3.7,0.8,5.1c0.5,1.4,1.2,2.7,2,3.6c0.9,1,1.9,1.7,3.1,2.2
		c1.2,0.5,2.5,0.7,4,0.7c1.4,0,2.5-0.2,3.5-0.5s1.8-0.7,2.5-1c0.7-0.4,1.3-0.7,1.8-1s0.9-0.5,1.2-0.5c0.4,0,0.8,0.2,1,0.5l1.5,2
		c-0.7,0.8-1.5,1.5-2.4,2.1s-1.9,1.1-3,1.5s-2.2,0.7-3.3,0.9s-2.3,0.3-3.4,0.3c-2.1,0-4.1-0.4-5.9-1.1c-1.8-0.7-3.4-1.8-4.7-3.2
		s-2.3-3.1-3.1-5.2c-0.7-2.1-1.1-4.4-1.1-7.1c0-2.2,0.3-4.2,1-6.1c0.7-1.9,1.6-3.5,2.9-4.9c1.2-1.4,2.8-2.5,4.6-3.2
		C871,197.7,873,197.3,875.3,197.3z M875.4,201.3c-2.6,0-4.7,0.8-6.2,2.3s-2.4,3.6-2.8,6.3h16.8c0-1.3-0.2-2.4-0.5-3.5
		s-0.9-2-1.5-2.7c-0.7-0.8-1.5-1.4-2.5-1.8C877.7,201.5,876.6,201.3,875.4,201.3z"/>
	<path class="st8" d="M908.7,228.7v-31h3.1c0.6,0,1,0.1,1.2,0.3s0.4,0.6,0.5,1.2l0.4,4.8c1.1-2.2,2.4-3.8,3.9-5.1
		c1.6-1.2,3.4-1.8,5.5-1.8c0.9,0,1.6,0.1,2.3,0.3s1.3,0.5,1.9,0.8l-0.7,4.1c-0.1,0.5-0.5,0.8-1,0.8c-0.3,0-0.7-0.1-1.3-0.3
		s-1.4-0.3-2.5-0.3c-1.9,0-3.5,0.6-4.8,1.6c-1.3,1.1-2.3,2.7-3.2,4.8v19.7h-5.3V228.7z"/>
	<path class="st8" d="M968.6,228.7h-2.4c-0.5,0-1-0.1-1.3-0.3s-0.5-0.5-0.6-1l-0.6-2.9c-0.8,0.7-1.6,1.4-2.4,2
		c-0.8,0.6-1.6,1.1-2.5,1.5c-0.8,0.4-1.8,0.7-2.7,0.9c-1,0.2-2,0.3-3.2,0.3s-2.3-0.2-3.4-0.5c-1.1-0.3-2-0.8-2.7-1.5
		c-0.8-0.7-1.4-1.5-1.8-2.6c-0.5-1-0.7-2.2-0.7-3.7c0-1.2,0.3-2.4,1-3.5s1.8-2.1,3.3-3s3.5-1.6,5.9-2.2c2.4-0.6,5.4-0.8,8.9-0.8V209
		c0-2.4-0.5-4.2-1.6-5.5c-1-1.2-2.5-1.9-4.6-1.9c-1.3,0-2.4,0.2-3.3,0.5c-0.9,0.3-1.7,0.7-2.4,1.1c-0.7,0.4-1.2,0.8-1.7,1.1
		s-1,0.5-1.4,0.5s-0.7-0.1-1-0.3s-0.5-0.4-0.7-0.7l-1-1.7c1.7-1.7,3.6-2.9,5.5-3.7c2-0.8,4.2-1.2,6.6-1.2c1.7,0,3.3,0.3,4.6,0.9
		c1.3,0.6,2.5,1.4,3.4,2.4s1.6,2.2,2.1,3.7c0.5,1.4,0.7,3,0.7,4.8L968.6,228.7L968.6,228.7z M954.5,225.4c1,0,1.8-0.1,2.6-0.3
		s1.5-0.5,2.2-0.8c0.7-0.4,1.4-0.8,2-1.3s1.3-1.1,1.9-1.7v-6.4c-2.5,0-4.6,0.2-6.4,0.5c-1.7,0.3-3.2,0.7-4.3,1.2s-1.9,1.1-2.4,1.8
		s-0.7,1.5-0.7,2.3s0.1,1.5,0.4,2.1c0.3,0.6,0.6,1.1,1.1,1.5c0.4,0.4,1,0.7,1.6,0.8C953.1,225.3,953.8,225.4,954.5,225.4z"/>
	<path class="st8" d="M999.9,229.2c-2.4,0-4.3-0.7-5.6-2.1c-1.3-1.4-2-3.3-2-5.9v-18.9h-3.7c-0.3,0-0.6-0.1-0.8-0.3
		s-0.3-0.5-0.3-0.9v-2.2l5.1-0.6l1.3-9.6c0-0.3,0.2-0.6,0.4-0.7c0.2-0.2,0.5-0.3,0.9-0.3h2.7v10.7h8.9v3.9h-8.9v18.6
		c0,1.3,0.3,2.3,1,2.9c0.6,0.6,1.4,1,2.4,1c0.6,0,1.1-0.1,1.5-0.2c0.4-0.2,0.8-0.3,1.1-0.5s0.6-0.3,0.8-0.5s0.4-0.2,0.6-0.2
		c0.3,0,0.5,0.2,0.8,0.5l1.6,2.6c-0.9,0.9-2.1,1.6-3.4,2.1C1002.7,229,1001.3,229.2,999.9,229.2z"/>
	<path class="st8" d="M1034.3,188c0,0.5-0.1,1-0.3,1.5c-0.2,0.5-0.5,0.9-0.9,1.2c-0.4,0.4-0.8,0.6-1.2,0.8c-0.5,0.2-1,0.3-1.5,0.3
		s-1-0.1-1.5-0.3s-0.9-0.5-1.2-0.8c-0.4-0.4-0.6-0.8-0.8-1.2c-0.2-0.5-0.3-1-0.3-1.5s0.1-1,0.3-1.5c0.2-0.5,0.5-0.9,0.8-1.2
		c0.4-0.4,0.8-0.6,1.2-0.8c0.5-0.2,0.9-0.3,1.5-0.3c0.5,0,1,0.1,1.5,0.3s0.9,0.5,1.2,0.8c0.4,0.4,0.6,0.8,0.9,1.2
		C1034.2,187,1034.3,187.5,1034.3,188z M1033.1,197.8v31h-5.4v-31H1033.1z"/>
	<path class="st8" d="M1068.9,197.3c2.3,0,4.3,0.4,6.1,1.1c1.8,0.8,3.4,1.8,4.6,3.2c1.3,1.4,2.3,3.1,2.9,5c0.7,2,1,4.2,1,6.6
		c0,2.4-0.3,4.6-1,6.6c-0.7,2-1.7,3.6-2.9,5c-1.3,1.4-2.8,2.5-4.6,3.2c-1.8,0.7-3.9,1.1-6.1,1.1c-2.3,0-4.3-0.4-6.1-1.1
		c-1.8-0.7-3.4-1.8-4.7-3.2c-1.3-1.4-2.3-3-3-5c-0.7-2-1-4.2-1-6.6c0-2.4,0.3-4.6,1-6.6c0.7-2,1.7-3.6,3-5c1.3-1.4,2.8-2.5,4.7-3.2
		C1064.6,197.6,1066.6,197.3,1068.9,197.3z M1068.9,224.9c3.1,0,5.3-1,6.8-3.1c1.5-2,2.3-4.9,2.3-8.6c0-3.7-0.8-6.6-2.3-8.6
		c-1.5-2.1-3.8-3.1-6.8-3.1c-1.5,0-2.9,0.3-4,0.8s-2.1,1.3-2.9,2.3s-1.3,2.2-1.7,3.7s-0.6,3.1-0.6,4.9c0,1.8,0.2,3.5,0.6,4.9
		c0.4,1.5,0.9,2.7,1.7,3.7c0.8,1,1.7,1.7,2.9,2.3C1066,224.6,1067.3,224.9,1068.9,224.9z"/>
	<path class="st8" d="M1104,228.7v-31h3.2c0.8,0,1.3,0.4,1.5,1.1l0.4,3.4c1.3-1.5,2.9-2.7,4.5-3.6c1.7-0.9,3.6-1.4,5.8-1.4
		c1.7,0,3.2,0.3,4.5,0.8c1.3,0.6,2.4,1.3,3.2,2.4c0.9,1,1.5,2.3,2,3.7c0.5,1.5,0.7,3,0.7,4.8v19.7h-5.4v-19.7c0-2.3-0.5-4.2-1.6-5.4
		c-1.1-1.3-2.7-1.9-4.9-1.9c-1.6,0-3.1,0.4-4.5,1.2s-2.7,1.8-3.9,3.1v22.8L1104,228.7L1104,228.7z"/>
</g>
<g>
	<g>
		<path class="st9" d="M124.1,26.5c-58.5,0-105.8,47.4-105.8,105.8s47.4,105.8,105.8,105.8S230,190.9,230,132.4
			C230,74,182.6,26.5,124.1,26.5z M223.3,132.7c0,54.6-44.3,99-99,99c-54.6,0-99-44.3-99-99c0-54.6,44.3-99,99-99
			C179,33.7,223.3,78,223.3,132.7z"/>
		<path class="st9" d="M124.1,37.6c-52.4,0-94.9,42.5-94.9,94.9s42.5,94.9,94.9,94.9s94.9-42.5,94.9-94.9
			C218.9,80,176.5,37.6,124.1,37.6z M213,132.7c0,49-39.7,88.6-88.7,88.6s-88.6-39.7-88.6-88.6c0-49,39.7-88.7,88.6-88.7
			C173.3,43.9,213,83.6,213,132.7z"/>
	</g>
	<g>
		<path class="st9" d="M138.7,160.7c-6.9,0-12.5,5.6-12.5,12.5c0,6.9,5.6,12.5,12.5,12.5c6.9,0,12.5-5.6,12.5-12.5
			C151.1,166.4,145.5,160.7,138.7,160.7z M138.7,179.5c-3.5,0-6.3-2.8-6.3-6.3s2.8-6.3,6.3-6.3c3.5,0,6.3,2.8,6.3,6.3
			S142.1,179.5,138.7,179.5z"/>
		<path class="st9" d="M138.7,151c-4.6,0-9,1.5-12.6,4v4.9v3.8c2.9-3.8,7.5-6.3,12.6-6.3c8.7,0,15.8,7.1,15.8,15.8
			c0,8.7-7.1,15.8-15.8,15.8c-8.7,0-15.8-7.1-15.8-15.8l0,0v-10.7c-1.2,1.6-2,3.6-2.5,5.6v-7.4c-2.4,3.6-3.8,7.8-3.8,12.4
			c0,12.2,9.9,22.2,22.2,22.2c12.2,0,22.2-9.9,22.2-22.2C160.7,160.9,150.9,151,138.7,151z"/>
		<path class="st9" d="M116.5,69.5v53.4v6.4v3.1v6.3v34.3h3.3c0.1-3.4,1.2-6.5,3.1-9v-25.8c-2.4-0.7-4.3-2.9-4.3-5.6
			c0-2.7,1.8-4.9,4.3-5.6V69.5L116.5,69.5L116.5,69.5z"/>
		<g>
			<path class="st9" d="M127.1,132.5c0-0.9-0.5-1.6-1.2-2.1v4.3C126.6,134.1,127.1,133.4,127.1,132.5z"/>
			<path class="st9" d="M126.1,69.5v57.4c2.4,0.7,4.3,2.9,4.3,5.6c0,2.6-1.7,4.8-4.3,5.6v22.5c1.8-1.5,4-2.4,6.4-2.9V69.5H126.1z"/>
		</g>
	</g>
	<g>
		<path class="st9" d="M83.5,105.8c-6.9,0-12.5,5.6-12.5,12.5c0,6.9,5.6,12.5,12.5,12.5c6.9,0,12.5-5.6,12.5-12.5
			C95.9,111.4,90.3,105.8,83.5,105.8z M83.5,112c3.5,0,6.3,2.8,6.3,6.3c0,3.5-2.8,6.3-6.3,6.3s-6.3-2.8-6.3-6.3
			C77.2,114.8,80,112,83.5,112z"/>
		<path class="st9" d="M105.7,118.3c0,4.6-1.5,9-4,12.6h-4.9H93c3.8-2.9,6.3-7.5,6.3-12.6c0-8.7-7.1-15.8-15.8-15.8
			s-15.8,7.1-15.8,15.8s7.1,15.8,15.8,15.8l0,0h10.7c-1.7,1.2-3.6,2-5.6,2.5h7.4c-3.6,2.4-7.8,3.8-12.4,3.8
			c-12.2,0-22.2-9.9-22.2-22.2C61.4,106,71.2,96,83.5,96C95.7,96.2,105.7,106.1,105.7,118.3z"/>
		<g>
			<path class="st9" d="M124.4,129.7c-1,0-1.7,0.5-2.2,1.2h4.4C126.1,130.2,125.3,129.7,124.4,129.7z"/>
			<path class="st9" d="M98.9,124.5c-0.5,2.3-1.5,4.6-2.9,6.4h22.8c0.7-2.4,2.9-4.3,5.6-4.3c2.7,0,4.9,1.8,5.6,4.3h56.8v-6.4H98.9z"
				/>
		</g>
		<g>
			<path class="st9" d="M124.4,135.3c0.9,0,1.6-0.5,2.1-1.1h-4.3C122.8,134.8,123.5,135.3,124.4,135.3z"/>
			<path class="st9" d="M130,134.2c-0.7,2.4-2.9,4.2-5.6,4.2c-2.6,0-4.8-1.7-5.6-4.2h-26c-2.5,1.8-5.6,3-9,3.1v3.3h34.3h6.4h3.1h6.4
				h53v-6.4H130z"/>
		</g>
	</g>
	<rect x="122.8" y="130.9" class="st9" width="3.2" height="3.2"/>
	<ellipse class="st9" cx="124.4" cy="132.5" rx="2.7" ry="2.7"/>
</g>
<g>
	<rect x="272.6" y="155" class="st8" width="390.7" height="2.6"/>
	<rect x="738.4" y="155" class="st8" width="390.7" height="2.6"/>
	<g>
		<path class="st8" d="M683.9,156.3c0,2.1-1.7,3.8-3.8,3.8s-3.8-1.7-3.8-3.8s1.7-3.8,3.8-3.8C682.2,152.5,683.9,154.2,683.9,156.3z"
			/>
		<path class="st8" d="M704.7,156.3c0,2.1-1.7,3.8-3.8,3.8s-3.8-1.7-3.8-3.8s1.7-3.8,3.8-3.8C703,152.5,704.7,154.2,704.7,156.3z"/>
		<path class="st8" d="M725.4,156.3c0,2.1-1.7,3.8-3.8,3.8s-3.8-1.7-3.8-3.8s1.7-3.8,3.8-3.8C723.7,152.5,725.4,154.2,725.4,156.3z"
			/>
	</g>
</g>
<text transform="matrix(1 0 0 1 269.6526 228.7212)" class="st10 st11 st12 st13">Stitching &amp; Alteration</text>
</svg>
