<?xml version="1.0" encoding="utf-8"?>
<!-- Generator: Adobe Illustrator 16.0.0, SVG Export Plug-In . SVG Version: 6.00 Build 0)  -->
<!DOCTYPE svg PUBLIC "-//W3C//DTD SVG 1.1//EN" "http://www.w3.org/Graphics/SVG/1.1/DTD/svg11.dtd">
<svg version="1.1" id="Isolation_Mode" xmlns="http://www.w3.org/2000/svg" xmlns:xlink="http://www.w3.org/1999/xlink" x="0px"
	 y="0px" width="100px" height="100px" viewBox="0 0 100 100" enable-background="new 0 0 100 100" xml:space="preserve">
<g>
	<path fill-rule="evenodd" clip-rule="evenodd" fill="#FFFFFF" d="M39.304,37.907c-1.131-0.635-2.147-1.146-3.093-1.759
		c-0.579-0.378-0.957-0.378-1.494,0.095c-4.325,3.785-8.668,7.552-13.034,11.288c-0.652,0.56-0.787,1.002-0.397,1.816
		c4.102,8.576,8.171,17.171,12.224,25.773c0.387,0.822,0.814,1.041,1.668,0.662c3.832-1.71,7.674-3.396,11.532-5.049
		c0.853-0.361,1.01-0.783,0.699-1.648c-1.124-3.1-2.153-6.234-3.261-9.341c-0.233-0.648-0.124-1.04,0.403-1.475
		c3.769-3.109,7.521-6.237,11.255-9.392c0.342-0.29,0.646-0.765,0.729-1.201c0.722-3.73,1.38-7.472,2.081-11.209
		c0.05-0.269,0.273-0.507,0.417-0.755c0.122,0.254,0.338,0.502,0.358,0.765c0.229,3.002,0.441,6.007,0.633,9.014
		c0.334,5.296,0.678,10.593,0.967,15.89c0.277,5.124,0.479,10.247,0.731,15.37c0.286,5.874,0.619,11.749,0.866,17.625
		c0.042,1.031,0.375,1.379,1.387,1.396c4.418,0.076,8.834,0.189,13.248,0.345c0.994,0.033,1.227-0.361,1.226-1.257
		c-0.022-5.994-0.017-11.991-0.012-17.985c0.006-4.167,0.104-8.331,0.021-12.495c-0.079-4.109,0.104-8.198-0.309-12.334
		c-0.544-5.477-0.223-11.043-0.272-16.569c-0.074-7.79-0.148-15.579-0.21-23.367c-0.004-0.266,0.024-0.644,0.194-0.782
		c1.243-1.027,1.121-2.4,0.994-3.759c-0.12-1.309-0.579-1.765-1.868-1.934C74.534,5.316,72.08,4.94,69.614,4.73
		c-4.113-0.349-8.23-0.728-12.352-0.825c-4.083-0.099-8.178,0.134-12.268,0.225c-1.057,0.023-2.211,0.021-2.633,1.214
		c-0.493,1.389-0.755,2.83,0.066,4.246c0.205,0.357,0.36,0.834,0.317,1.233c-0.253,2.318-0.582,4.63-0.871,6.944
		c-0.699,5.591-1.389,11.185-2.089,16.775C39.652,35.597,39.485,36.646,39.304,37.907z"/>
	<path fill-rule="evenodd" clip-rule="evenodd" d="M39.304,37.907c0.182-1.261,0.349-2.311,0.482-3.365
		c0.7-5.591,1.39-11.185,2.089-16.775c0.289-2.314,0.618-4.625,0.871-6.944c0.043-0.399-0.112-0.875-0.317-1.233
		c-0.821-1.416-0.56-2.857-0.066-4.246c0.422-1.193,1.576-1.191,2.633-1.214c4.09-0.09,8.185-0.323,12.268-0.225
		c4.121,0.097,8.238,0.476,12.352,0.825c2.466,0.21,4.92,0.586,7.373,0.905c1.289,0.169,1.748,0.625,1.868,1.934
		c0.127,1.359,0.249,2.732-0.994,3.759c-0.17,0.139-0.198,0.517-0.194,0.782c0.062,7.788,0.136,15.577,0.21,23.367
		c0.05,5.526-0.271,11.093,0.272,16.569c0.413,4.136,0.229,8.225,0.309,12.334c0.083,4.164-0.015,8.328-0.021,12.495
		c-0.005,5.994-0.011,11.991,0.012,17.985c0.001,0.896-0.231,1.29-1.226,1.257c-4.414-0.155-8.83-0.269-13.248-0.345
		c-1.012-0.017-1.345-0.364-1.387-1.396c-0.247-5.876-0.58-11.751-0.866-17.625c-0.252-5.123-0.454-10.246-0.731-15.37
		c-0.289-5.297-0.633-10.594-0.967-15.89c-0.191-3.007-0.403-6.012-0.633-9.014c-0.021-0.263-0.236-0.511-0.358-0.765
		c-0.144,0.248-0.367,0.486-0.417,0.755c-0.701,3.737-1.359,7.479-2.081,11.209c-0.083,0.437-0.388,0.911-0.729,1.201
		c-3.734,3.154-7.486,6.282-11.255,9.392c-0.527,0.435-0.637,0.826-0.403,1.475c1.107,3.106,2.137,6.241,3.261,9.341
		c0.311,0.865,0.153,1.287-0.699,1.648c-3.858,1.653-7.7,3.339-11.532,5.049c-0.854,0.379-1.281,0.16-1.668-0.662
		c-4.053-8.603-8.122-17.197-12.224-25.773c-0.39-0.814-0.255-1.257,0.397-1.816c4.366-3.736,8.709-7.503,13.034-11.288
		c0.537-0.473,0.915-0.473,1.494-0.095C37.156,36.761,38.173,37.272,39.304,37.907z M77.188,95.061
		c-0.003-3.512-0.013-6.632,0-9.752c0.04-10.092,0.085-20.181,0.156-30.27c0.004-0.739-0.229-1.1-0.927-1.327
		c-0.512-0.169-1.434-0.09-1.26-0.955c0.056-0.282,0.903-0.405,1.617-0.694c-0.123-13.26-0.249-26.827-0.373-40.458
		c-2.896,0.182-5.577,0.316-8.253,0.531c-1.259,0.1-2.503,0.389-3.76,0.528c-0.585,0.066-1.191,0.023-1.775-0.06
		c-0.48-0.072-0.939-0.274-1.558-0.466c-0.035,0.645-0.057,1.034-0.078,1.422c-0.17,3.048-0.326,6.097-0.533,9.145
		c-0.027,0.39-0.324,0.762-0.495,1.146c-0.144-0.386-0.422-0.775-0.406-1.154c0.123-2.943,0.3-5.884,0.463-8.825
		c0.029-0.531,0.061-1.058,0.091-1.627c-0.763-0.044-1.395-0.112-2.025-0.104c-0.532,0.007-1.086,0.22-1.586,0.127
		c-1.172-0.222-2.306-0.654-3.479-0.85c-2.266-0.38-4.547-0.664-6.822-0.973c-0.662-0.092-1.329-0.139-2.07-0.213
		c-0.115,0.83-0.223,1.538-0.315,2.247c-0.594,4.628-1.191,9.255-1.776,13.886c-0.483,3.845-0.961,7.692-1.406,11.545
		c-0.036,0.29,0.114,0.759,0.333,0.894c1.434,0.874,2.908,1.68,4.51,2.586c0.301-1.237,0.548-2.344,0.858-3.433
		c0.068-0.234,0.377-0.399,0.576-0.598c0.079,0.25,0.262,0.52,0.225,0.752c-0.169,0.987-0.365,1.977-0.624,2.943
		c-0.171,0.643,0.038,0.972,0.597,1.282c2.513,1.389,5.002,2.818,7.5,4.228c0.239,0.135,0.504,0.218,0.867,0.373
		c0.696-3.897,1.374-7.69,2.051-11.48c-0.1,0.031-0.198,0.062-0.299,0.093c-0.247-0.36-0.495-0.719-0.744-1.08
		c0.438-0.142,0.87-0.317,1.319-0.411c0.33-0.069,0.684-0.027,1.101-0.037c0.026-0.461,0.046-0.814,0.066-1.168
		c0.074-1.325,0.123-2.655,0.247-3.98c0.024-0.277,0.328-0.532,0.504-0.799c0.136,0.29,0.326,0.57,0.396,0.874
		c0.063,0.272-0.007,0.574-0.021,0.862c-0.08,1.421-0.16,2.843-0.24,4.29c0.446,0.053,0.731,0.07,1.009,0.122
		c0.521,0.094,1.317-0.146,1.289,0.696c-0.009,0.22-0.802,0.413-1.231,0.619c-0.063,0.03-0.122,0.07-0.261,0.153
		c0.006,0.308,0.001,0.66,0.024,1.014c0.379,5.618,0.797,11.233,1.131,16.853c0.297,4.98,0.505,9.964,0.753,14.945
		c0.257,5.194,0.514,10.389,0.776,15.584c0.157,3.192,0.313,6.38,0.515,9.565c0.016,0.303,0.313,0.823,0.519,0.841
		c1.88,0.17,3.77,0.25,5.771,0.36c-0.136-3.549-0.257-6.767-0.386-9.984c-0.196-4.876-0.399-9.752-0.599-14.629
		c-0.202-4.91-0.411-9.821-0.607-14.732c-0.084-2.116-0.159-4.232-0.196-6.348c-0.003-0.239,0.259-0.485,0.396-0.729
		c0.146,0.242,0.384,0.474,0.417,0.732c0.086,0.672,0.086,1.357,0.113,2.04c0.193,4.804,0.381,9.609,0.576,14.412
		c0.196,4.876,0.405,9.752,0.601,14.627c0.188,4.59,0.354,9.179,0.575,13.767c0.013,0.258,0.41,0.689,0.656,0.714
		C73.456,94.877,75.241,94.95,77.188,95.061z M40.103,72.264c2.121-0.934,4.106-1.81,6.148-2.709
		C42.54,58.844,38.876,48.267,35.152,37.52c-2.14,1.856-4.061,3.583-6.054,5.221c-0.686,0.565-0.754,1.03-0.421,1.821
		c2.69,6.454,5.339,12.928,8.003,19.396C37.797,66.67,38.919,69.386,40.103,72.264z M27.536,44.116
		c-1.617,1.401-3.026,2.678-4.499,3.873c-0.6,0.486-0.608,0.889-0.298,1.543c3.832,8.025,7.638,16.063,11.452,24.101
		c0.148,0.312,0.329,0.61,0.533,0.986c1.541-0.678,3.004-1.323,4.54-2.001C35.35,63.102,31.479,53.699,27.536,44.116z
		 M36.984,38.058c-0.071,0.063-0.143,0.126-0.216,0.188c1.02,2.942,2.031,5.889,3.077,8.822c0.096,0.276,0.377,0.523,0.629,0.702
		c2.432,1.725,4.889,3.415,7.305,5.156c0.563,0.407,0.915,0.309,1.39-0.104c1.158-1.019,2.364-1.988,3.549-2.98
		c0.644-0.539,1.28-1.087,2.036-1.729C48.71,44.691,42.849,41.374,36.984,38.058z M55.654,8.775c0.053-1.908,0.048-1.871-1.85-2.096
		c-2.487-0.292-4.969-0.622-7.444-0.985c-1.664-0.246-1.656-0.28-1.854,1.43c-0.039,0.32-0.083,0.641-0.158,0.954
		c-0.158,0.651,0.122,0.91,0.747,0.991c3.229,0.428,6.453,0.867,9.675,1.323c0.558,0.078,0.817-0.096,0.83-0.652
		C55.609,9.417,55.636,9.095,55.654,8.775z M76.156,6.924c-3.403,0.165-6.863,0.325-10.317,0.52c-0.2,0.013-0.531,0.317-0.551,0.515
		c-0.108,0.974-0.138,1.961-0.199,3.102c2.97-0.185,5.754-0.312,8.533-0.542c2.977-0.246,2.975-0.289,2.687-3.295
		C76.303,7.161,76.248,7.1,76.156,6.924z M47.724,54.015c-2.388-1.659-4.63-3.219-6.874-4.779c-0.071,0.056-0.145,0.111-0.219,0.17
		c0.916,2.647,1.835,5.298,2.817,8.139C44.919,56.331,46.231,55.245,47.724,54.015z M58.294,7.077
		c-0.068,1.235-0.084,2.058-0.172,2.872c-0.065,0.612,0.198,0.855,0.766,0.891c0.966,0.06,1.933,0.166,2.897,0.167
		c0.259-0.003,0.707-0.299,0.738-0.509c0.129-0.871,0.132-1.759,0.202-3.005C61.069,9.035,59.778,8.08,58.294,7.077z M68.382,6.019
		c-5.144-0.747-10.288-1.161-15.469-0.774c0.412,0.139,0.83,0.183,1.246,0.236c2.179,0.273,4.47,0.036,6.392,1.463
		c0.146,0.107,0.51,0.059,0.694-0.048c1.373-0.794,2.848-0.846,4.376-0.754C66.537,6.193,67.461,6.066,68.382,6.019z M63.368,11.981
		c0.488-0.188,0.607-0.208,0.612-0.24c0.15-1.443,0.298-2.891,0.417-4.339c0.008-0.103-0.214-0.223-0.328-0.335
		c-0.151,0.154-0.419,0.3-0.439,0.471c-0.085,0.709-0.096,1.429-0.133,2.143C63.459,10.39,63.417,11.099,63.368,11.981z
		 M56.72,11.489c0.131-0.03,0.268-0.06,0.401-0.09c0.079-1.416,0.172-2.828,0.218-4.247c0.006-0.156-0.25-0.319-0.388-0.479
		c-0.114,0.186-0.319,0.366-0.336,0.561c-0.087,1.174-0.153,2.35-0.182,3.527C56.428,11.001,56.618,11.245,56.72,11.489z"/>
	<path fill-rule="evenodd" clip-rule="evenodd" fill="#FFFFFF" d="M40.103,72.264c-1.184-2.878-2.306-5.594-3.422-8.307
		c-2.664-6.468-5.313-12.941-8.003-19.396c-0.333-0.791-0.265-1.256,0.421-1.821c1.993-1.638,3.914-3.364,6.054-5.221
		c3.724,10.747,7.388,21.324,11.099,32.035C44.209,70.454,42.224,71.33,40.103,72.264z"/>
	<path fill-rule="evenodd" clip-rule="evenodd" fill="#FFFFFF" d="M27.536,44.116c3.942,9.583,7.813,18.985,11.729,28.502
		c-1.536,0.678-2.999,1.323-4.54,2.001c-0.204-0.376-0.385-0.675-0.533-0.986c-3.814-8.037-7.62-16.075-11.452-24.101
		c-0.311-0.654-0.302-1.057,0.298-1.543C24.51,46.794,25.919,45.518,27.536,44.116z"/>
	<path fill-rule="evenodd" clip-rule="evenodd" fill="#FFFFFF" d="M36.984,38.058c5.864,3.316,11.726,6.634,17.77,10.055
		c-0.756,0.643-1.393,1.19-2.036,1.729c-1.185,0.992-2.391,1.962-3.549,2.98c-0.475,0.413-0.826,0.512-1.39,0.104
		c-2.416-1.741-4.873-3.432-7.305-5.156c-0.252-0.179-0.533-0.426-0.629-0.702c-1.046-2.934-2.058-5.88-3.077-8.822
		C36.842,38.184,36.913,38.121,36.984,38.058z"/>
	<path fill-rule="evenodd" clip-rule="evenodd" fill="#FFFFFF" d="M55.654,8.775c-0.019,0.32-0.045,0.642-0.054,0.965
		c-0.013,0.556-0.272,0.729-0.83,0.652c-3.222-0.456-6.446-0.895-9.675-1.323c-0.625-0.082-0.905-0.34-0.747-0.991
		c0.075-0.313,0.119-0.634,0.158-0.954c0.197-1.71,0.189-1.676,1.854-1.43c2.476,0.363,4.957,0.694,7.444,0.985
		C55.702,6.904,55.707,6.867,55.654,8.775z"/>
	<path fill-rule="evenodd" clip-rule="evenodd" fill="#FFFFFF" d="M76.156,6.924c0.092,0.176,0.146,0.237,0.152,0.299
		c0.288,3.007,0.29,3.049-2.687,3.295c-2.779,0.23-5.563,0.357-8.533,0.542c0.062-1.141,0.091-2.128,0.199-3.102
		c0.02-0.197,0.351-0.502,0.551-0.515C69.293,7.249,72.753,7.088,76.156,6.924z"/>
	<path fill-rule="evenodd" clip-rule="evenodd" fill="#FFFFFF" d="M47.724,54.015c-1.492,1.23-2.805,2.316-4.275,3.529
		c-0.982-2.841-1.901-5.491-2.817-8.139c0.074-0.059,0.147-0.114,0.219-0.17C43.094,50.796,45.336,52.355,47.724,54.015z"/>
	<path fill-rule="evenodd" clip-rule="evenodd" fill="#FFFFFF" d="M58.294,7.077c1.484,1.002,2.775,1.958,4.432,0.416
		c-0.07,1.246-0.073,2.134-0.202,3.005c-0.031,0.21-0.479,0.506-0.738,0.509c-0.965-0.001-1.932-0.107-2.897-0.167
		c-0.567-0.036-0.831-0.279-0.766-0.891C58.21,9.135,58.226,8.313,58.294,7.077z"/>
	<path fill-rule="evenodd" clip-rule="evenodd" fill="#FFFFFF" d="M68.382,6.019c-0.921,0.047-1.845,0.174-2.761,0.123
		c-1.528-0.092-3.003-0.04-4.376,0.754c-0.185,0.107-0.548,0.156-0.694,0.048c-1.922-1.427-4.213-1.19-6.392-1.463
		c-0.416-0.053-0.834-0.097-1.246-0.236C58.094,4.857,63.238,5.272,68.382,6.019z"/>
	<path fill-rule="evenodd" clip-rule="evenodd" fill="#FFFFFF" d="M63.368,11.981c0.049-0.883,0.091-1.592,0.129-2.301
		c0.037-0.714,0.048-1.433,0.133-2.143c0.021-0.17,0.288-0.316,0.439-0.471c0.114,0.112,0.336,0.232,0.328,0.335
		c-0.119,1.449-0.267,2.896-0.417,4.339C63.976,11.774,63.856,11.794,63.368,11.981z"/>
	<path fill-rule="evenodd" clip-rule="evenodd" fill="#FFFFFF" d="M56.72,11.489c-0.102-0.245-0.292-0.488-0.286-0.728
		c0.028-1.177,0.095-2.353,0.182-3.527c0.017-0.195,0.222-0.375,0.336-0.561c0.138,0.16,0.394,0.323,0.388,0.479
		c-0.046,1.419-0.139,2.831-0.218,4.247C56.987,11.429,56.851,11.459,56.72,11.489z"/>
	<path fill-rule="evenodd" clip-rule="evenodd" d="M75.713,86.832c0.033-9.378,0.066-18.753,0.097-28.133
		c0.174-0.002,0.346-0.002,0.519,0c0.01,9.377-0.015,18.749-0.104,28.126C76.055,86.826,75.886,86.831,75.713,86.832z"/>
	<path fill-rule="evenodd" clip-rule="evenodd" d="M68.989,44.442c-0.04,0.06-0.217,0.321-0.393,0.585
		c-0.172-0.271-0.474-0.533-0.494-0.815c-0.114-1.633-0.179-3.272-0.209-4.91c-0.002-0.246,0.261-0.499,0.398-0.749
		c0.176,0.269,0.484,0.526,0.502,0.802C68.894,40.955,68.925,42.559,68.989,44.442z"/>
	<path fill-rule="evenodd" clip-rule="evenodd" d="M75.592,93.429c0.046-0.794,0.099-1.536,0.124-2.281
		c0.024-0.704,0.019-1.409,0.024-2.115c0.166,0.003,0.331,0.004,0.495,0.01c-0.019,1.539-0.031,3.079-0.066,4.62
		c-0.002,0.117-0.133,0.331-0.213,0.336c-1.097,0.044-2.198,0.06-3.297,0.083c-0.002-0.141-0.005-0.276-0.01-0.417
		C73.613,93.587,74.576,93.509,75.592,93.429z"/>
</g>
<g display="none">
	<path display="inline" fill-rule="evenodd" clip-rule="evenodd" d="M35.1,34.226c-0.773,2.833-1.549,5.667-2.322,8.501
		c-0.016,0.055-0.031,0.109-0.035,0.165c-0.389,8.338-2.447,16.413-3.836,24.595c-0.117,0.691-0.377,1.007-1.08,0.914
		c-1.463-0.192-2.961-0.244-4.381-0.605c-1.309-0.333-1.572-0.896-1.441-2.161c0.662-6.386,1.34-12.77,2.02-19.152
		c0.049-0.444,0.131-0.888,0.24-1.321c0.348-1.402,0.672-2.776,0.617-4.27c-0.043-1.143,0.502-2.293,0.633-3.457
		c0.344-3.034,0.543-6.084,0.908-9.115c0.551-4.588,1.172-9.167,1.803-13.744c0.34-2.458,1.73-4.115,4.031-5.048
		c2.363-0.956,4.713-1.945,7.059-2.942c0.482-0.205,0.965-0.46,1.367-0.789c0.24-0.196,0.32-0.585,0.48-0.882
		c0.275-0.504,0.582-0.992,0.832-1.508c0.23-0.476,0.506-0.964,0.578-1.473c0.1-0.694,0.361-1.122,1.084-1.124
		c4.205-0.01,8.41-0.011,12.615-0.004c0.758,0.002,1.086,0.422,1.113,1.179c0.012,0.372,0.096,0.815,0.316,1.094
		c0.537,0.68,1.02,1.302,1.217,2.229c0.105,0.501,0.973,0.947,1.586,1.215c1.951,0.85,3.971,1.545,5.912,2.416
		c1.244,0.559,2.48,1.214,3.557,2.038c0.613,0.468,1.109,1.315,1.287,2.078c0.602,2.557,1.195,5.134,1.5,7.737
		c0.611,5.205,1.004,10.435,1.547,15.647c0.131,1.275,0.498,2.526,0.744,3.791c0.064,0.327,0.172,0.69,0.094,0.993
		c-0.301,1.158,0.225,2.188,0.396,3.276c0.379,2.406,0.684,4.825,0.961,7.245c0.455,4.011,0.867,8.025,1.295,12.039
		c0.076,0.725,0.113,1.454,0.211,2.176c0.096,0.712-0.203,1.174-0.789,1.526c-1.225,0.736-2.582,0.888-3.967,0.913
		c-1.975,0.035-2.006,0.033-2.359-1.868c-0.965-5.178-1.908-10.359-2.838-15.543c-0.336-1.869-0.611-3.749-0.914-5.624
		c-0.021-0.138-0.059-0.285-0.033-0.417c0.404-2.024-0.441-3.85-0.912-5.732c-0.428-1.706-0.877-3.407-1.371-5.32
		c-1.215,4.494-2.566,8.744-1.354,13.291c0.248,0.927,0.135,1.947,0.219,2.921c0.045,0.542,0.057,1.118,0.252,1.61
		c1.705,4.275,3.453,8.572,3.939,13.168c0.354,3.354,0.324,6.782,0.127,10.157c-0.418,7.19-1.066,14.368-1.592,21.553
		c-0.051,0.694-0.363,0.961-0.98,1.131c-3.707,1.023-7.514,1.279-11.324,1.395c-5.076,0.153-10.156,0.147-15.201-0.542
		c-1.521-0.209-3.029-0.56-4.523-0.928c-0.307-0.075-0.721-0.5-0.754-0.801c-1.088-9.729-1.879-19.479-1.838-29.277
		c0.014-3.515,1.051-6.852,2.129-10.162c0.338-1.038,0.688-2.077,1.096-3.09c0.76-1.89,1.445-3.731,1.346-5.879
		c-0.086-1.875,0.533-3.771,0.566-5.663C36.986,39.808,35.928,37.021,35.1,34.226z M32.662,13.767
		c0.078-0.002,0.158-0.004,0.236-0.006c0.023,0.53,0.076,1.06,0.066,1.59c-0.086,4.594,0.588,9.111,1.518,13.584
		c0.695,3.34,1.568,6.644,2.426,9.947c0.676,2.604,0.688,5.191,0.184,7.823c-0.213,1.115-0.184,2.275-0.287,3.412
		c-0.047,0.521-0.063,1.066-0.236,1.549c-0.607,1.686-1.322,3.333-1.916,5.022c-1.598,4.552-2.693,9.19-2.408,14.073
		c0.197,3.415,0.238,6.839,0.486,10.249c0.371,5.114,0.867,10.22,1.289,15.33c0.047,0.57,0.275,0.871,0.818,0.974
		c1.344,0.255,2.68,0.567,4.031,0.764c4.502,0.655,9.041,0.683,13.576,0.614c3.973-0.061,7.936-0.306,11.834-1.161
		c1.602-0.352,1.654-0.344,1.76-1.814c0.549-7.519,1.119-15.036,1.574-22.561c0.186-3.044,0.303-6.111-0.287-9.142
		c-0.756-3.894-2.02-7.633-3.51-11.296c-0.426-1.042-0.805-2.031-0.637-3.222c0.113-0.804-0.094-1.669-0.246-2.489
		c-0.432-2.308-0.658-4.629-0.123-6.932c0.621-2.673,1.486-5.29,2.041-7.974c1.102-5.319,2.23-10.645,2.096-16.131
		c-0.023-0.895,0.104-1.793,0.16-2.69c0.057,0.002,0.113,0.005,0.17,0.007c0,1.323,0,2.647,0,3.971
		c0.799-1.905,1.447-3.831,2.012-5.781c0.063-0.213-0.301-0.703-0.576-0.834c-2.096-0.997-4.215-1.949-6.34-2.885
		c-0.758-0.333-1.551-0.583-2.305-0.861c-2.555,3.428-5.951,4.919-10.08,4.921c-4.16,0.003-7.572-1.518-10.18-5.039
		c-2.654,1.165-5.332,2.293-7.969,3.517c-1.391,0.646-1.355,0.722-0.877,2.193c0.045,0.133,0.07,0.271,0.115,0.404
		c0.449,1.368,0.9,2.736,1.352,4.104c0.078-0.01,0.154-0.021,0.232-0.031C32.662,15.899,32.662,14.833,32.662,13.767z M71.514,67.21
		c2.078-0.336,4.016-0.648,6.006-0.971c-0.018-0.251-0.035-0.613-0.072-0.972c-0.479-4.599-0.945-9.198-1.445-13.795
		c-0.314-2.89-0.398-5.818-1.402-8.599c-0.074-0.203-0.115-0.459-0.061-0.659c0.326-1.171-0.027-2.271-0.271-3.394
		c-0.242-1.12-0.486-2.249-0.6-3.386c-0.533-5.353-0.941-10.719-1.568-16.061c-0.264-2.265-0.93-4.484-1.469-6.712
		c-0.105-0.439-0.459-0.819-0.814-1.427c-0.592,1.809-1.127,3.335-1.586,4.884c-0.381,1.279-0.758,2.568-0.984,3.88
		c-0.537,3.114-0.879,6.267-1.506,9.361c-0.449,2.214-0.641,4.35,0.045,6.534c0.436,1.388,0.771,2.808,1.156,4.212
		c0.26,0.944,0.842,1.93,0.719,2.821c-0.229,1.691,0.313,3.212,0.553,4.8c0.574,3.791,1.135,7.584,1.77,11.365
		C70.443,61.85,71.014,64.587,71.514,67.21z M22.471,66.223c2.068,0.346,3.979,0.666,5.961,0.997
		c-0.006,0.02,0.063-0.16,0.098-0.345c0.836-4.49,1.779-8.964,2.467-13.476c0.529-3.463,1.381-6.898,1.262-10.445
		c-0.01-0.271,0.09-0.551,0.162-0.82c0.711-2.708,1.469-5.405,2.117-8.129c0.188-0.789,0.18-1.671,0.055-2.479
		c-0.332-2.154-0.77-4.292-1.176-6.435c-0.607-3.204-0.516-6.534-1.842-9.611c-0.557-1.294-0.918-2.673-1.379-4.051
		c-0.766,0.707-1.207,1.362-1.459,3.124c-0.732,5.129-1.373,10.271-2.006,15.412c-0.336,2.724-0.533,5.464-0.883,8.186
		c-0.184,1.434-0.785,2.818-0.414,4.311c0.041,0.17-0.08,0.377-0.115,0.569c-0.377,2.035-0.855,4.058-1.109,6.108
		c-0.502,4.058-0.891,8.129-1.307,12.196C22.73,63.004,22.605,64.676,22.471,66.223z M43.359,1.635
		c-0.293,0.656-0.473,1.433-0.922,1.994c-0.979,1.227-1.041,1.469,0.016,2.615c0.244,0.266,0.52,0.508,0.803,0.733
		c2.604,2.069,5.596,2.534,8.785,2.046c2.402-0.368,4.436-1.438,5.969-3.383c0.426-0.539,0.434-1.087-0.039-1.498
		c-0.811-0.706-1.277-1.511-1.172-2.605c0.002-0.02-0.084-0.048-0.131-0.07c-0.463,1.06-1.248,1.84-2.42,2.243
		c-2.729,0.94-5.494,0.958-8.236,0.095C44.82,3.43,43.773,2.771,43.359,1.635z M40.301,6.71c4.307,6.419,15.346,6.202,19.322,0.036
		c-0.365-0.285-0.732-0.572-1.096-0.856c-4.529,5.113-12.98,4.77-17.012,0.043C41.129,6.18,40.736,6.431,40.301,6.71z M56.158,1.398
		c-0.535-0.069-0.99-0.177-1.445-0.179c-3.107-0.016-6.217-0.012-9.326-0.007c-0.336,0-0.674,0.021-1.004,0.077
		c-0.488,0.082-0.672,0.386-0.285,0.745c0.508,0.469,1.035,1.009,1.656,1.243c2.684,1.015,5.43,0.984,8.152,0.139
		C54.875,3.116,55.688,2.534,56.158,1.398z M72.262,67.794c1.6,0.153,3.174,0.15,4.578-0.819
		C75.234,66.798,73.699,67.021,72.262,67.794z M23.105,66.848c0.873,0.919,3.564,1.353,4.678,0.866
		C26.326,67.018,24.846,66.863,23.105,66.848z"/>
	<path display="inline" fill-rule="evenodd" clip-rule="evenodd" fill="#FFFFFF" d="M71.514,67.21c-0.5-2.623-1.07-5.36-1.531-8.116
		c-0.635-3.781-1.195-7.574-1.77-11.365c-0.24-1.588-0.781-3.108-0.553-4.8c0.123-0.892-0.459-1.877-0.719-2.821
		c-0.385-1.404-0.721-2.824-1.156-4.212c-0.686-2.185-0.494-4.32-0.045-6.534c0.627-3.095,0.969-6.247,1.506-9.361
		c0.227-1.312,0.604-2.601,0.984-3.88c0.459-1.549,0.994-3.075,1.586-4.884c0.355,0.607,0.709,0.987,0.814,1.427
		c0.539,2.228,1.205,4.447,1.469,6.712c0.627,5.342,1.035,10.708,1.568,16.061c0.113,1.137,0.357,2.266,0.6,3.386
		c0.244,1.123,0.598,2.223,0.271,3.394c-0.055,0.2-0.014,0.456,0.061,0.659c1.004,2.78,1.088,5.709,1.402,8.599
		c0.5,4.597,0.967,9.196,1.445,13.795c0.037,0.358,0.055,0.721,0.072,0.972C75.529,66.562,73.592,66.874,71.514,67.21z"/>
	<path display="inline" fill-rule="evenodd" clip-rule="evenodd" fill="#FFFFFF" d="M22.471,66.223
		c0.135-1.547,0.26-3.219,0.432-4.887c0.416-4.067,0.805-8.139,1.307-12.196c0.254-2.051,0.732-4.073,1.109-6.108
		c0.035-0.192,0.156-0.399,0.115-0.569c-0.371-1.492,0.23-2.877,0.414-4.311c0.35-2.722,0.547-5.462,0.883-8.186
		c0.633-5.142,1.273-10.283,2.006-15.412c0.252-1.762,0.693-2.417,1.459-3.124c0.461,1.378,0.822,2.757,1.379,4.051
		c1.326,3.077,1.234,6.407,1.842,9.611c0.406,2.143,0.844,4.28,1.176,6.435c0.125,0.808,0.133,1.689-0.055,2.479
		c-0.648,2.724-1.406,5.421-2.117,8.129c-0.072,0.27-0.172,0.549-0.162,0.82c0.119,3.547-0.732,6.982-1.262,10.445
		c-0.688,4.512-1.631,8.985-2.467,13.476c-0.035,0.185-0.104,0.364-0.098,0.345C26.449,66.889,24.539,66.568,22.471,66.223z"/>
	<path display="inline" fill-rule="evenodd" clip-rule="evenodd" fill="#FFFFFF" d="M43.359,1.635
		c0.414,1.137,1.461,1.795,2.652,2.17c2.742,0.863,5.508,0.846,8.236-0.095c1.172-0.403,1.957-1.184,2.42-2.244
		c0.047,0.023,0.133,0.052,0.131,0.071c-0.105,1.095,0.361,1.899,1.172,2.605c0.473,0.411,0.465,0.959,0.039,1.498
		c-1.533,1.944-3.566,3.015-5.969,3.383c-3.189,0.488-6.182,0.023-8.785-2.046c-0.283-0.226-0.559-0.468-0.803-0.733
		c-1.057-1.146-0.994-1.389-0.016-2.615C42.887,3.067,43.066,2.291,43.359,1.635z"/>
	<path display="inline" fill-rule="evenodd" clip-rule="evenodd" fill="#FFFFFF" d="M40.301,6.71
		c0.436-0.279,0.828-0.53,1.215-0.777c4.031,4.727,12.482,5.07,17.012-0.043c0.363,0.284,0.73,0.571,1.096,0.856
		C55.646,12.912,44.607,13.129,40.301,6.71z"/>
	<path display="inline" fill-rule="evenodd" clip-rule="evenodd" fill="#FFFFFF" d="M56.158,1.398
		c-0.471,1.136-1.283,1.718-2.252,2.019c-2.723,0.846-5.469,0.876-8.152-0.139c-0.621-0.234-1.148-0.774-1.656-1.243
		c-0.387-0.359-0.203-0.663,0.285-0.745c0.33-0.057,0.668-0.077,1.004-0.077c3.109-0.005,6.219-0.009,9.326,0.007
		C55.168,1.222,55.623,1.329,56.158,1.398z"/>
	<path display="inline" fill-rule="evenodd" clip-rule="evenodd" fill="#FFFFFF" d="M72.262,67.794
		c1.438-0.773,2.973-0.996,4.578-0.819C75.436,67.944,73.861,67.947,72.262,67.794z"/>
	<path display="inline" fill-rule="evenodd" clip-rule="evenodd" fill="#FFFFFF" d="M23.105,66.848
		c1.74,0.016,3.221,0.17,4.678,0.866C26.67,68.2,23.979,67.767,23.105,66.848z"/>
	<path display="inline" fill-rule="evenodd" clip-rule="evenodd" fill="#FFFFFF" d="M69.289,11.478
		c0.063-0.213-0.301-0.703-0.576-0.834c-2.096-0.997-4.215-1.949-6.34-2.885c-0.758-0.333-1.551-0.583-2.305-0.861
		c-2.555,3.428-5.951,4.919-10.08,4.921c-4.16,0.003-7.572-1.518-10.18-5.039c-2.654,1.165-5.332,2.293-7.969,3.517
		c-1.391,0.646-1.355,0.722-0.877,2.193c0.045,0.133,0.07,0.271,0.115,0.404c0.449,1.368,0.9,2.736,1.352,4.104
		c0.078-0.01,0.154-0.021,0.232-0.031c0-1.066,0-2.133,0-3.199c0.078-0.002,0.158-0.004,0.236-0.006
		c0.023,0.53,0.076,1.06,0.066,1.59c-0.086,4.594,0.588,9.111,1.518,13.584c0.695,3.34,1.568,6.644,2.426,9.947
		c0.676,2.604,0.688,5.191,0.184,7.823c-0.213,1.115-0.184,2.275-0.287,3.412c-0.047,0.521-0.063,1.066-0.236,1.549
		c-0.607,1.686-1.322,3.333-1.916,5.022c-1.598,4.552-2.693,9.19-2.408,14.073c0.197,3.415,0.238,6.839,0.486,10.249
		c0.371,5.114,0.867,10.22,1.289,15.33c0.047,0.57,0.275,0.871,0.818,0.974c1.344,0.255,2.68,0.567,4.031,0.764
		c4.502,0.655,9.041,0.683,13.576,0.614c3.973-0.061,7.936-0.306,11.834-1.161c1.602-0.352,1.654-0.344,1.76-1.814
		c0.549-7.519,1.119-15.036,1.574-22.561c0.186-3.044,0.303-6.111-0.287-9.142c-0.756-3.894-2.02-7.633-3.51-11.296
		c-0.426-1.042-0.805-2.031-0.637-3.222c0.113-0.804-0.094-1.669-0.246-2.489c-0.432-2.308-0.658-4.629-0.123-6.932
		c0.621-2.673,1.486-5.29,2.041-7.974c1.102-5.319,2.23-10.645,2.096-16.131c-0.023-0.895,0.104-1.793,0.16-2.69
		c0.057,0.002,0.113,0.005,0.17,0.007c0,1.323,0,2.647,0,3.971C68.076,15.354,68.725,13.428,69.289,11.478z M51.584,35.297h-3.121
		V29.58h3.121V35.297z M51.584,27.388h-3.121v-5.717h3.121V27.388z M51.584,19.479h-3.121v-5.718h3.121V19.479z"/>
</g>
</svg>
